<svg width="456" height="471" viewBox="0 0 456 471" fill="none" xmlns="http://www.w3.org/2000/svg">
<g clip-path="url(#clip0_81_2)">
<mask id="mask0_81_2" style="mask-type:luminance" maskUnits="userSpaceOnUse" x="0" y="0" width="456" height="471">
<path d="M455.5 0H0V470.2H455.5V0Z" fill="white"/>
</mask>
<g mask="url(#mask0_81_2)">
<path d="M446.3 181.3C447 175.9 439.4 171.4 433.6 170.9C430.9 170.7 428 171.1 425.4 170.2C419.8 168.2 417.5 160.9 412 158.6C407.9 156.9 403.1 158.4 399.2 160.4C395.2 162.4 391.3 164.9 386.8 165.2C382.9 165.4 378.7 164 375.3 165.9C372.8 167.3 371.4 170.2 369.1 171.9C366.8 173.6 363.8 173.9 361 174.1C358.2 174.3 355.2 174.3 352.7 175.5C350.1 176.7 348 179.4 348.5 182.2L446.3 181.3Z" fill="#F5F5F5"/>
<path d="M195.3 92.1001C195.9 87.8001 189.9 84.3001 185.3 83.9001C183.1 83.7001 180.9 84.1001 178.8 83.3001C174.4 81.8001 172.6 76.0001 168.3 74.2001C165.1 72.8001 161.3 74.1001 158.2 75.6001C155.1 77.2001 152 79.2001 148.4 79.4001C145.3 79.6001 142 78.5001 139.4 80.0001C137.4 81.1001 136.4 83.4001 134.5 84.8001C132.7 86.1001 130.4 86.4001 128.1 86.5001C125.8 86.6001 123.6 86.6001 121.5 87.6001C119.5 88.5001 117.8 90.7001 118.2 92.9001L195.3 92.1001Z" fill="#FAFAFA"/>
<path d="M148.9 63.7002C149.9 56.5002 139.8 50.7002 132.2 50.0002C128.6 49.7002 124.8 50.3002 121.4 49.1002C114 46.6002 111 37.0002 103.8 33.9002C98.4 31.6002 92.1 33.6002 86.9 36.3002C81.6 38.9002 76.5 42.3002 70.6 42.6002C65.5 42.9002 59.9 41.0002 55.5 43.5002C52.2 45.4002 50.4 49.2002 47.4 51.5002C44.4 53.7002 40.5 54.2002 36.8 54.4002C33.1 54.6002 29.2 54.6002 25.8 56.2002C22.4 57.8002 19.6 61.3002 20.3 65.0002L148.9 63.7002Z" fill="#F5F5F5"/>
<path d="M69.4001 328.4C69.4001 328.4 61.9001 326 58.4001 343.3C54.9001 360.6 54.4001 370.2 54.4001 370.2C54.4001 370.2 53.2001 373.9 50.5001 372.5C47.7001 371 43.1001 366 39.7001 368.1C36.2001 370.3 36.1001 374.9 38.6001 381C41.1001 387.1 46.0001 400.7 46.5001 401.9C46.9001 403.1 46.7001 405.1 44.7001 404.4C42.7001 403.7 29.8001 395.5 26.2001 401.8C22.7001 408.2 32.4001 424 33.4001 425.8C34.4001 427.6 34.3001 428.5 33.5001 429.2C32.7001 429.9 28.7001 426.7 24.9001 424.5C21.1001 422.3 16.4001 420.4 14.6001 424.3C12.9001 428.1 15.6001 441.3 33.8001 458.9L42.7001 466.5L53.9001 462.7C77.3001 453.2 84.8001 442 84.6001 437.8C84.4001 433.6 79.3001 433.6 75.0001 434.2C70.7001 434.8 65.7001 436.3 65.3001 435.3C64.9001 434.3 65.1001 433.4 66.7001 432.2C68.3001 431 83.3001 419.9 82.3001 412.7C81.4001 405.5 66.3001 408.3 64.2001 408.2C62.0001 408.1 62.6001 406.1 63.5001 405.2C64.4001 404.2 74.0001 393.5 78.6001 388.8C83.2001 384.1 84.9001 379.7 82.4001 376.4C80.0001 373.2 73.8001 376.2 70.7001 376.5C67.6001 376.8 67.9001 372.9 67.9001 372.9C67.9001 372.9 71.0001 363.9 74.2001 346.5C77.4001 329.1 69.3001 328.6 69.3001 328.6" fill="#EBEBEB"/>
<path d="M41.4001 468.901C43.8001 456.201 48.5001 433.601 52.3001 414.201C56.2001 394.801 59.7001 377.201 62.2001 364.501C63.4001 358.101 64.4001 353.001 65.1001 349.401C65.4001 347.601 65.7001 346.301 65.9001 345.301C66.0001 344.801 66.1001 344.501 66.1001 344.201C66.2001 344.001 66.2001 343.801 66.2001 343.801C66.2001 343.801 66.2001 343.901 66.2001 344.201C66.2001 344.501 66.1001 344.801 66.0001 345.301C65.8001 346.301 65.6001 347.601 65.3001 349.401C64.7001 353.001 63.7001 358.101 62.5001 364.501C60.1001 377.201 56.6001 394.801 52.7001 414.201C48.8001 433.601 44.1001 456.201 41.6001 468.901" fill="#E0E0E0"/>
<path d="M45.8 375.301C45.8 375.301 46 375.501 46.3 376.001C46.6 376.501 47 377.101 47.5 378.001C48.5 379.701 49.9 382.001 51.3 384.601C52.7 387.201 54.0002 389.501 54.9002 391.301C55.3001 392.101 55.7 392.801 56 393.301C56.3 393.801 56.4002 394.001 56.4002 394.101C56.4002 394.101 56.2002 393.901 55.9002 393.401C55.6002 392.901 55.2001 392.301 54.7001 391.401C53.7001 389.701 52.4 387.401 51 384.801C49.6 382.201 48.3 379.901 47.3 378.101C46.9 377.301 46.5001 376.601 46.2001 376.101C45.9001 375.601 45.8 375.301 45.8 375.301Z" fill="#E0E0E0"/>
<path d="M57.6002 393.901C57.5002 393.801 62.2002 390.801 68.1002 387.301C73.9002 383.701 78.7002 380.901 78.8002 381.001C78.9002 381.101 74.2002 384.101 68.3002 387.701C62.4002 391.201 57.6002 394.001 57.6002 393.901Z" fill="#E0E0E0"/>
<path d="M50.3 423.501C50.3 423.501 50.6 423.401 51.1 423.201C51.7 423.001 52.5002 422.801 53.4002 422.601C55.3002 422.101 58 421.301 60.8 420.401C63.7 419.501 66.3 418.601 68.1 417.901C69 417.601 69.7002 417.301 70.3002 417.101C70.8002 416.901 71.1 416.801 71.1 416.801C71.1 416.801 70.8002 417.001 70.3002 417.201C69.8002 417.401 69.1 417.701 68.1 418.101C66.3 418.801 63.7 419.801 60.8 420.701C57.9 421.601 55.2 422.301 53.3 422.801C52.3 423.001 51.5 423.201 51 423.301C50.6 423.401 50.3 423.501 50.3 423.501Z" fill="#E0E0E0"/>
<path d="M35.9001 409C35.9001 409 36.1001 409.2 36.5001 409.5C36.9001 409.9 37.5001 410.4 38.1001 411C39.4001 412.3 41.3001 414 43.3001 416C45.3001 418 47.1001 419.8 48.4001 421.1C49.0001 421.7 49.5001 422.2 49.9001 422.7C50.3001 423.1 50.4001 423.3 50.4001 423.3C50.4001 423.3 50.2001 423.1 49.8001 422.8C49.4001 422.4 48.8001 421.9 48.2001 421.3C46.9001 420 45.0001 418.3 43.0001 416.3C41.0001 414.3 39.2001 412.5 37.9001 411.2C37.3001 410.6 36.8001 410.1 36.4001 409.6C36.1001 409.2 35.9001 409 35.9001 409Z" fill="#E0E0E0"/>
<path d="M26.1001 434.2C26.1001 434.2 26.4001 434.4 26.9001 434.9C27.4001 435.4 28.1001 436 28.9001 436.8C30.6001 438.4 33.0001 440.7 35.6001 443.2C38.2001 445.7 40.5001 448 42.2001 449.6C43.0001 450.4 43.7001 451.1 44.2001 451.6C44.7001 452.1 44.9001 452.3 44.9001 452.4C44.9001 452.4 44.6001 452.2 44.1001 451.7C43.6001 451.2 42.9001 450.6 42.1001 449.8C40.4001 448.2 38.0001 445.9 35.4001 443.4C32.8001 440.9 30.5001 438.6 28.8001 437C28.0001 436.2 27.3001 435.5 26.8001 435C26.4001 434.5 26.1001 434.2 26.1001 434.2Z" fill="#E0E0E0"/>
<path d="M44.5 451.7C44.5 451.7 44.9 451.5 45.5 451.3C46.2 451.1 47.2 450.8 48.4 450.4C50.8 449.6 54.1 448.6 57.8 447.3C61.4 446 64.7 444.8 67 443.9C68.1 443.5 69.1 443.1 69.8 442.8C70.5 442.5 70.8 442.4 70.8 442.4C70.8 442.4 70.5 442.6 69.8 442.9C69.2 443.2 68.2 443.6 67.1 444.1C64.8 445.1 61.5 446.3 57.9 447.6C54.3 448.9 50.9 449.9 48.5 450.6C47.3 450.9 46.3 451.2 45.6 451.4C44.9 451.7 44.5 451.8 44.5 451.7Z" fill="#E0E0E0"/>
<path d="M276.3 398.7C280.4 398.5 284.3 400.5 287.2 403.3C290.1 406.2 292 409.9 293.3 413.7C295.9 421.1 295.3 430.2 293.7 437.8C285.3 435.5 279.6 427.1 277 422.7C272.9 415.7 269.6 400.6 276.3 398.7Z" fill="#EBEBEB"/>
<path d="M306.2 446.2C303.3 442.7 302.9 437.5 304.7 433.3C306.5 429.1 310.2 425.9 314.4 424.3C316.4 423.5 318.7 423.1 320.5 424.2C322.2 425.2 323.1 427.2 323 429.2C322.9 431.2 322.1 433 321 434.7C317.4 440.3 312.8 445.2 306.2 446.2Z" fill="#EBEBEB"/>
<path d="M307 465.9C306.9 465.9 306.3 464 305.6 460.9C305.2 459.3 305 457.4 305.1 455.2C305.2 453.1 305.2 450.7 305.5 448.3C306.2 443.4 308.2 439.2 310.1 436.6C311.1 435.3 312 434.4 312.7 433.8C313.4 433.2 313.8 433 313.9 433C314 433.1 312.4 434.4 310.6 437C308.8 439.6 307 443.7 306.3 448.4C305.9 450.8 305.9 453.1 305.8 455.2C305.7 457.3 305.8 459.2 306.1 460.7C306.7 463.9 307.1 465.8 307 465.9Z" fill="#E0E0E0"/>
<path d="M279.8 410.101C279.9 410.101 280.3 410.901 281.2 412.301C282 413.801 283.2 415.901 284.6 418.601C287.4 423.901 291.3 431.301 295.3 439.601C299.3 447.901 302.8 455.501 305.2 461.101C306.4 463.901 307.3 466.101 307.9 467.701C308.5 469.301 308.8 470.201 308.8 470.201C308.7 470.201 308.3 469.401 307.6 467.901C306.8 466.201 305.8 464.001 304.6 461.401C302.1 455.901 298.5 448.401 294.5 440.101C290.4 431.901 286.8 424.501 284 419.001C282.7 416.401 281.6 414.201 280.8 412.601C280.1 410.901 279.8 410.101 279.8 410.101Z" fill="#E0E0E0"/>
<path d="M298.5 453.2C292 446.1 282 442.5 272.5 443.8C270.1 444.1 267.3 445.1 266.7 447.5C266.1 449.9 268.1 452.1 270 453.5C278.3 459.4 290.2 459.5 298.6 453.8" fill="#EBEBEB"/>
<path d="M277.7 448.801C277.7 448.701 278.2 448.701 279.1 448.701C280 448.601 281.3 448.701 282.9 448.701C286 448.901 290.5 449.301 295 451.301C297.2 452.301 299.2 453.701 300.8 455.101C302.4 456.601 303.5 458.101 304.3 459.501C305.1 460.901 305.6 462.101 305.9 462.901C306.2 463.701 306.3 464.201 306.3 464.201C306.1 464.301 305.4 462.401 303.8 459.801C302.9 458.501 301.8 457.001 300.3 455.701C298.8 454.301 296.9 453.101 294.7 452.101C290.4 450.101 286 449.601 282.9 449.301C279.7 449.001 277.7 449.001 277.7 448.801Z" fill="#E0E0E0"/>
<path d="M51.9999 189L39.6999 163.6L27.3999 171.5L8.3999 155.2L25.5999 180.3L38.0999 172.3L51.9999 189Z" fill="#E0E0E0"/>
<path d="M48.2999 195.901L31.1999 187.601L27.8999 196.901L11.0999 196.201L30.6999 202.301L33.9999 192.801L48.2999 195.901Z" fill="#E0E0E0"/>
<path d="M380 442.6C380 442.6 379.8 442.6 379.4 442.5C379 442.4 378.4 442.2 377.6 442C376.1 441.6 373.8 441.2 370.9 440.9C368.1 440.7 364.6 440.7 360.9 441.3C357.2 441.9 353.2 443.1 349.3 445.1C345.4 447.1 342.1 449.6 339.4 452.2C336.7 454.8 334.6 457.6 333.2 460C331.7 462.4 330.7 464.5 330.1 466C329.8 466.7 329.6 467.3 329.4 467.7C329.2 468.1 329.2 468.3 329.1 468.3C329.1 468.3 329.1 468.1 329.3 467.7C329.4 467.3 329.6 466.7 329.9 465.9C330.4 464.4 331.4 462.3 332.9 459.8C334.4 457.3 336.4 454.5 339.1 451.9C341.8 449.2 345.2 446.7 349.1 444.7C353 442.7 357.1 441.5 360.9 440.9C364.7 440.3 368.1 440.3 371 440.6C373.9 440.9 376.1 441.4 377.7 441.8C378.5 442 379.1 442.2 379.5 442.4C379.8 442.5 380 442.5 380 442.6Z" fill="#2E2E2E"/>
<path d="M376.6 441C373 445 371.9 451.1 373.8 456.1C374.2 457.1 374.9 458.2 376 458.2C377.1 458.2 377.9 457 378.2 455.9C379.7 451.4 379.3 446.2 377 442C378.5 445.6 381.1 448.8 384.3 451C385.5 451.8 387.3 452.5 388.5 451.6C389.7 450.7 389.6 449 389.1 447.6C387.4 442.9 382.3 439.6 377.4 440C381.9 440.4 386.5 437.7 388.3 433.5C389 431.9 389.1 429.7 387.5 428.9C386.6 428.4 385.4 428.7 384.5 429.1C380.8 430.7 377.8 434 376.6 437.9C378.6 433.5 377.7 428 374.3 424.5C373.2 423.4 371.7 422.4 370.2 422.9C368.3 423.4 367.7 425.8 367.8 427.7C367.9 432.5 370.4 437.3 374.3 440.1C371.8 438.5 368.5 438.2 365.8 439.4C364 440.2 362.3 442.1 363.1 443.9C363.9 445.6 366.2 445.8 368.1 445.4C371.4 444.8 374.6 443.4 377.4 441.4" fill="#B09232"/>
<path d="M342.2 448.9C347.7 455.9 356.5 460.2 365.4 460.4C365.3 458.4 363.7 456.9 362.1 455.7C356.5 451.4 349.5 449.1 342.5 449.3" fill="#455A64"/>
<path d="M375.6 451.6C375.4 451.5 376.4 449 376.5 445.8C376.7 442.6 376.1 440 376.2 439.9C376.3 439.8 377.2 442.5 377 445.8C376.9 449.2 375.8 451.7 375.6 451.6Z" fill="#2E2E2E"/>
<path d="M383.1 447.4C383 447.5 382.1 445.4 380.2 443.6C378.3 441.8 376.3 440.8 376.4 440.7C376.4 440.6 378.5 441.4 380.6 443.3C382.6 445.2 383.3 447.4 383.1 447.4Z" fill="#2E2E2E"/>
<path d="M382.8 434.3C382.9 434.3 382.3 436.4 380.4 438.3C378.6 440.3 376.4 440.9 376.4 440.7C376.3 440.6 378.3 439.8 380 437.9C381.8 436.2 382.6 434.2 382.8 434.3Z" fill="#2E2E2E"/>
<path d="M376.5 438.5C377.2 438.5 377.9 438.9 378.2 439.5C378.5 440.1 378.4 441 378 441.5C377.6 441.2 377.1 440.9 376.5 440.7C376.6 439.9 376.6 439.2 376.5 438.5Z" fill="#FAFAFA"/>
<path d="M371.2 427.9C371.2 427.9 371.8 428.4 372.6 429.5C373.4 430.5 374.3 432.1 375 434C375.7 435.9 376 437.7 376.1 439C376.2 440.3 376.1 441.1 376.1 441.1C375.9 441.1 375.9 437.9 374.5 434.2C373.2 430.4 371.1 428 371.2 427.9Z" fill="#2E2E2E"/>
<path d="M16.8998 430.5C18.9998 430.4 21.0998 431.5 22.5998 433C24.0998 434.5 25.0998 436.5 25.7998 438.5C27.0998 442.4 26.6998 447.2 25.7998 451.2C21.3998 449.9 18.3998 445.5 17.0998 443.1C14.8998 439.5 13.2998 431.4 16.8998 430.5Z" fill="#B09232"/>
<path d="M32.2999 455.701C30.7999 453.801 30.5999 451.101 31.5999 448.901C32.4999 446.701 34.4999 445.001 36.7999 444.201C37.7999 443.801 39.0999 443.601 39.9999 444.201C40.8999 444.701 41.2999 445.801 41.2999 446.901C41.2999 447.901 40.7999 448.901 40.1999 449.801C38.2999 452.701 35.7999 455.201 32.2999 455.701Z" fill="#B09232"/>
<path d="M33.5999 469.101C33.5999 469.101 33.4999 468.801 33.3999 468.301C33.1999 467.701 33.0999 467.001 32.7999 466.001C32.2999 464.101 31.5999 461.401 31.8999 458.401C32.0999 455.401 33.0999 452.701 34.2999 451.101C34.8999 450.301 35.3999 449.701 35.7999 449.301C35.9999 449.101 36.1999 449.001 36.2999 448.901C36.3999 448.801 36.4999 448.801 36.4999 448.801C36.5999 448.901 35.4999 449.601 34.4999 451.201C33.3999 452.801 32.3999 455.401 32.1999 458.401C31.9999 461.401 32.5999 464.001 32.9999 466.001C33.1999 467.001 33.3999 467.701 33.4999 468.301C33.5999 468.801 33.5999 469.101 33.5999 469.101Z" fill="#2E2E2E"/>
<path d="M18.5999 436.5C18.5999 436.5 18.6999 436.6 18.7999 436.8C18.8999 437 19.0999 437.4 19.2999 437.7C19.6999 438.5 20.2999 439.7 21.0999 441.2C22.5999 444.1 24.5999 448.3 26.6999 452.8C28.7999 457.4 30.5999 461.6 31.8999 464.6C32.4999 466.1 32.9999 467.4 33.3999 468.2C33.5999 468.6 33.6999 468.9 33.7999 469.2C33.8999 469.4 33.8999 469.5 33.8999 469.6C33.8999 469.6 33.7999 469.5 33.6999 469.3C33.5999 469 33.3999 468.7 33.2999 468.3C32.8999 467.4 32.3999 466.2 31.6999 464.7C30.3999 461.7 28.4999 457.5 26.3999 452.9C24.2999 448.3 22.2999 444.2 20.8999 441.2C20.1999 439.7 19.5999 438.5 19.1999 437.7C18.9999 437.3 18.8999 437 18.6999 436.7C18.6999 436.6 18.5999 436.5 18.5999 436.5Z" fill="#2E2E2E"/>
<path d="M27.8999 460.501C25.0999 456.301 20.0999 453.601 15.0999 453.601C13.7999 453.601 12.2999 453.901 11.7999 455.101C11.2999 456.301 12.0999 457.601 13.0999 458.501C16.9999 462.201 23.1999 463.201 27.9999 460.901" fill="#B09232"/>
<path d="M17.3 456.9C17.3 456.9 17.6 456.9 18.1 456.9C18.4 456.9 18.7 456.9 19 457C19.4 457 19.8001 457.1 20.2001 457.2C20.7001 457.3 21.2001 457.4 21.7001 457.5C22.2001 457.6 22.8 457.8 23.4 458C24.5 458.4 25.8 459 26.9 459.8C28.1 460.6 29.1 461.5 29.9 462.4C30.3 462.9 30.7 463.3 31 463.8C31.3 464.2 31.6 464.7 31.8 465.1C32.1 465.5 32.2002 465.9 32.4002 466.2C32.6002 466.5 32.7 466.8 32.8 467.1C33 467.6 33.1 467.9 33.1 467.9C33 467.9 32.7001 466.8 31.7001 465.3C31.5001 464.9 31.2 464.5 30.9 464.1C30.6 463.7 30.2 463.2 29.8 462.8C29 461.9 28 461 26.8 460.2C25.6 459.4 24.4 458.8 23.3 458.4C22.7 458.2 22.2001 458 21.7001 457.9C21.2001 457.7 20.7001 457.6 20.2001 457.6C18.4001 457 17.3 457 17.3 456.9Z" fill="#2E2E2E"/>
<path d="M302.3 469.701H329.5L368.5 281.001L342.4 275.601L302.3 469.701Z" fill="#455A64"/>
<path d="M419.4 409.9L255.2 376L250.5 371.8L267.9 314.5L275.5 315L263.7 308.8L270.5 275.2L434.7 309.2L439.3 313.3L432.5 346.3L419.5 346.5L426.6 347.9L431.3 352.1L419.4 409.9Z" fill="#2E2E2E"/>
<path d="M414.7 405.8L250.5 371.8L263.2 310.3L270.8 310.8L264.5 304.2L270.5 275.2L434.7 309.2L427.8 342.1L414.8 342.4L426.6 347.9L414.7 405.8Z" fill="#455A64"/>
<path d="M418.4 342C418.4 342 418.3 342 418 342C417.7 342 417.3 342 416.8 341.9C415.8 341.8 414.3 341.7 412.4 341.5C411.4 341.4 410.4 341.3 409.2 341.2C408 341.1 406.8 340.9 405.4 340.8C402.7 340.5 399.6 340.1 396.2 339.6C394.5 339.3 392.7 339.1 390.9 338.8C389 338.5 387.1 338.1 385.1 337.8C381.1 337.1 376.9 336.2 372.4 335.3C363.5 333.4 353.7 331.1 343.6 328.5C323.2 323.3 304.9 318.2 291.5 315C288.2 314.1 285.1 313.5 282.5 312.8C279.8 312.2 277.5 311.6 275.7 311.2C273.9 310.8 272.4 310.4 271.4 310.2C270.9 310.1 270.6 310 270.3 309.9C270.6 310 271 310 271.4 310.1C272.4 310.3 273.9 310.6 275.7 311C277.6 311.4 279.9 311.9 282.6 312.5C285.3 313.1 288.3 313.8 291.7 314.6C305.1 317.8 323.5 322.7 343.8 328C354 330.6 363.7 332.9 372.6 334.8C377.1 335.7 381.3 336.6 385.3 337.3C387.3 337.7 389.2 338 391.1 338.3C393 338.6 394.7 338.9 396.4 339.2C399.8 339.8 402.9 340.1 405.6 340.5C407 340.7 408.2 340.8 409.4 341C410.6 341.1 411.6 341.2 412.6 341.3C414.5 341.5 416 341.7 417 341.8C417.5 341.9 417.9 341.9 418.1 341.9C418.2 342 418.4 342 418.4 342Z" fill="#2E2E2E"/>
<path d="M426.6 336.801C426.6 336.801 426.5 336.701 426.2 336.601C425.9 336.401 425.6 336.201 425.2 335.901C424.3 335.201 423 334.201 421.2 333.001C417.7 330.601 412.6 327.101 405.8 323.601C399.1 320.001 390.7 316.301 381.1 313.301C371.5 310.401 360.6 308.101 349 307.401C337.4 306.601 326.3 307.701 316.2 307.901C311.2 308.001 306.3 308.001 301.9 307.601C297.4 307.201 293.3 306.601 289.5 305.801C282 304.201 276.2 302.101 272.2 300.401C270.2 299.601 268.7 298.901 267.7 298.401C267.2 298.201 266.8 298.001 266.6 297.801C266.3 297.701 266.2 297.601 266.2 297.601C266.2 297.601 266.3 297.601 266.6 297.801C266.9 297.901 267.3 298.101 267.8 298.301C268.8 298.801 270.3 299.401 272.3 300.201C276.3 301.801 282.1 303.901 289.6 305.401C293.3 306.201 297.5 306.801 301.9 307.101C306.4 307.501 311.2 307.501 316.2 307.301C326.3 307.001 337.4 305.901 349 306.701C360.7 307.401 371.6 309.701 381.3 312.701C390.9 315.801 399.3 319.501 406 323.101C412.7 326.701 417.9 330.201 421.3 332.701C423 333.901 424.3 335.001 425.2 335.701C425.6 336.001 425.9 336.301 426.2 336.501C426.5 336.701 426.6 336.801 426.6 336.801Z" fill="#2E2E2E"/>
<path d="M347.2 292.6C347.2 292.6 346.9 292.7 346.4 292.9C345.8 293.1 345.1 293.3 344.2 293.6C343.2 293.9 342 294.2 340.6 294.6C339.2 294.9 337.6 295.4 335.8 295.7C334 296.1 332.1 296.4 329.9 296.7C327.8 297.1 325.5 297.3 323.1 297.6C318.3 298.1 313 298.3 307.4 298.2C301.8 298.1 296.6 297.6 291.8 296.9C289.4 296.5 287.2 296.2 285.1 295.7C283 295.3 281.1 294.8 279.3 294.4C277.5 294 275.9 293.5 274.6 293.1C273.2 292.7 272 292.3 271.1 292C270.2 291.7 269.4 291.4 268.9 291.2C268.4 291 268.1 290.9 268.1 290.9C268.1 290.9 268.4 290.9 268.9 291.1C269.5 291.3 270.2 291.5 271.1 291.8C272.1 292.1 273.3 292.5 274.7 292.8C276.1 293.2 277.7 293.6 279.5 294C281.3 294.4 283.2 294.9 285.3 295.2C287.4 295.6 289.7 295.9 292 296.3C296.8 296.9 302 297.4 307.6 297.5C313.1 297.6 318.4 297.4 323.2 296.9C325.6 296.6 327.9 296.4 330 296.1C332.1 295.8 334.1 295.5 335.9 295.1C337.7 294.8 339.3 294.4 340.7 294.1C342.1 293.8 343.3 293.5 344.3 293.3C345.2 293.1 346 292.9 346.6 292.7C346.9 292.7 347.2 292.6 347.2 292.6Z" fill="#2E2E2E"/>
<path d="M303.6 351.3C303.6 351.3 303.9 351.4 304.3 351.7C304.8 352 305.5 352.5 306.5 353C308.4 354.2 311.2 355.9 314.9 357.9C318.6 359.9 323.3 362.2 329.2 363.4C330.7 363.7 332.2 364 333.8 364.1C335.4 364.2 337.1 364.1 338.4 363.1C339.1 362.6 339.6 361.9 339.8 361.1C340 360.3 340 359.4 339.8 358.6C339.4 356.9 338.1 355.5 336.7 354.4C324.2 346.1 306.5 340.1 286.6 339.5C284.1 339.4 281.6 339.4 279 339.5C276.5 339.6 273.8 340.2 272.1 342.1C271.2 343 270.7 344.2 270.8 345.5C270.8 346.7 271.4 347.9 272.2 349C273.8 351.1 276.1 352.5 278.4 354C287.4 360.1 296.9 366.2 307.7 370.4C318.4 374.6 329.8 376.5 340.5 374.9C343.2 374.5 345.8 373.9 348.3 373.1C350.8 372.3 353.2 371 354.8 369C356.4 367 357.1 364.4 357.1 361.9C357.1 359.4 356.5 356.9 355.5 354.7C353.4 350.2 349.8 346.7 345.8 344.2C341.8 341.6 337.5 340 333.3 338.8C329 337.6 324.8 336.7 320.8 335.8C316.8 334.9 312.9 334 309.2 333.2C294.5 329.9 282.6 327.1 274.3 325.3C270.2 324.4 267 323.6 264.8 323.1C263.7 322.8 262.9 322.7 262.3 322.5C261.7 322.4 261.5 322.3 261.5 322.3C261.5 322.3 261.8 322.3 262.3 322.5C262.9 322.6 263.7 322.8 264.8 323C267 323.5 270.2 324.2 274.3 325.1C282.6 326.9 294.5 329.6 309.3 332.8C313 333.6 316.9 334.5 320.9 335.4C324.9 336.3 329.1 337.2 333.4 338.4C337.7 339.6 342.1 341.3 346.1 343.8C350.1 346.4 353.8 349.9 356 354.5C357.1 356.8 357.7 359.4 357.7 362C357.7 364.6 357 367.3 355.3 369.4C353.6 371.5 351.1 372.8 348.6 373.7C346 374.5 343.4 375.2 340.7 375.6C329.8 377.2 318.3 375.3 307.6 371.1C296.8 366.9 287.2 360.8 278.2 354.7C276 353.2 273.6 351.7 271.9 349.5C271.1 348.4 270.4 347.1 270.4 345.7C270.3 344.3 270.9 342.9 271.9 341.9C272.8 340.9 274 340.2 275.3 339.8C276.6 339.4 277.9 339.2 279.2 339.2C281.8 339.1 284.3 339.1 286.8 339.2C306.9 339.8 324.5 345.9 337.1 354.3C338.6 355.4 340 356.9 340.4 358.8C340.6 359.7 340.6 360.7 340.4 361.5C340.1 362.4 339.6 363.2 338.9 363.7C337.4 364.7 335.6 364.9 334 364.8C332.4 364.7 330.9 364.4 329.4 364.1C323.5 362.8 318.8 360.4 315.1 358.4C311.4 356.4 308.6 354.6 306.7 353.4C305.8 352.8 305.1 352.3 304.6 352C303.8 351.5 303.6 351.3 303.6 351.3Z" fill="#2E2E2E"/>
<path d="M423.4 362C423.4 362 423.1 362 422.4 361.8C421.8 361.6 420.9 361.5 419.7 361.2C417.3 360.8 413.8 360.6 409.5 361.3C405.2 361.9 400.2 363.5 395 366C389.8 368.5 384.5 371.9 378.9 375.6C373.3 379.2 368 382.7 362.7 385.1C357.4 387.5 352.4 389 348 389.5C343.6 390 340.1 389.7 337.7 389.2C336.5 388.9 335.6 388.7 335 388.5C334.4 388.3 334.1 388.2 334.1 388.2C334.1 388.2 334.4 388.3 335.1 388.4C335.7 388.6 336.6 388.8 337.8 389C340.2 389.4 343.7 389.7 348 389.1C352.3 388.5 357.3 387.1 362.5 384.6C367.7 382.2 373 378.7 378.6 375.1C384.2 371.5 389.5 368 394.8 365.5C400 363 405.1 361.5 409.4 360.9C413.7 360.3 417.3 360.6 419.7 361C420.9 361.2 421.8 361.5 422.4 361.7C423.1 361.9 423.4 362 423.4 362Z" fill="#2E2E2E"/>
<path d="M420.4 378.3C420.4 378.4 419.6 378 418.2 377.7C416.8 377.4 414.6 377.1 412 377.5C409.4 377.8 406.4 378.9 403.2 380.2C400 381.5 396.6 383.4 393.1 385.5C389.6 387.6 386.3 389.6 383.1 391.1C379.9 392.6 376.9 393.7 374.3 394.3C371.7 394.9 369.5 395 368 394.9C367.3 394.9 366.7 394.8 366.3 394.8C365.9 394.7 365.7 394.7 365.7 394.7C365.7 394.6 366.5 394.7 368 394.7C369.5 394.7 371.6 394.5 374.2 393.9C376.8 393.3 379.7 392.2 382.9 390.6C386 389.1 389.3 387.1 392.8 385C396.3 382.9 399.7 381.1 403 379.7C406.2 378.3 409.3 377.4 412 377.1C414.7 376.8 416.9 377.1 418.3 377.5C419 377.7 419.6 377.9 419.9 378.1C420.2 378.2 420.4 378.3 420.4 378.3Z" fill="#2E2E2E"/>
<path d="M367.5 295.4C367.5 295.6 361.2 294.3 353.4 292.6C345.7 290.9 339.4 289.4 339.5 289.2C339.5 289 345.8 290.3 353.6 292C361.3 293.8 367.5 295.3 367.5 295.4Z" fill="#2E2E2E"/>
<path d="M322 333.401L316.9 332.301L315.5 338.901L306 336.801L307.4 330.201L289.1 326.201L290.5 319.801L310.7 301.601L320.8 303.801L302.3 321.001L309.3 322.501L310.6 316.601L319.8 318.601L318.5 324.501L323.6 325.601L322 333.401Z" fill="white"/>
<path d="M326.3 323.1C328.8 311.7 336.6 306.5 345.5 308.4C354.3 310.3 359.3 318.3 356.8 329.7C354.3 341.1 346.5 346.3 337.7 344.4C328.8 342.5 323.9 334.5 326.3 323.1ZM347 327.6C348.6 320.3 346.9 317.1 343.8 316.4C340.6 315.7 337.8 317.9 336.2 325.2C334.6 332.5 336.3 335.7 339.5 336.4C342.6 337.1 345.4 334.9 347 327.6Z" fill="white"/>
<path d="M390.5 348.301L385.4 347.201L384 353.801L374.5 351.701L375.9 345.101L357.6 341.101L359 334.701L379.2 316.501L389.3 318.701L370.8 335.901L377.8 337.401L379.1 331.501L388.3 333.501L387 339.401L392.1 340.501L390.5 348.301Z" fill="white"/>
<path d="M314.7 357.9L314.2 360.1L303.8 357.7L307.1 343.8L317.2 346.2L316.7 348.4L309.1 346.6L308.3 350.2L315 351.8L314.5 353.9L307.8 352.3L306.9 356.1L314.7 357.9Z" fill="white"/>
<path d="M326.2 362.899L324.3 358.199C324.1 358.199 323.9 358.099 323.8 358.099L320.7 357.399L319.8 361.399L317.2 360.799L320.5 346.899L326.2 348.199C329.8 349.099 331.7 351.499 331 354.499C330.5 356.599 329.1 357.899 327 358.199L329.1 363.499L326.2 362.899ZM325.4 350.399L322.4 349.699L321.1 355.199L324.1 355.899C326.4 356.399 327.8 355.699 328.2 353.899C328.6 352.199 327.7 350.899 325.4 350.399Z" fill="white"/>
<path d="M340.7 366.3L338.8 361.6C338.6 361.6 338.4 361.5 338.3 361.5L335.2 360.8L334.3 364.8L331.7 364.2L335 350.3L340.7 351.6C344.4 352.5 346.2 354.9 345.5 357.9C345 360 343.6 361.3 341.5 361.6L343.6 366.9L340.7 366.3ZM339.9 353.8L336.9 353.1L335.6 358.6L338.6 359.3C340.9 359.8 342.3 359.1 342.7 357.3C343.1 355.6 342.2 354.3 339.9 353.8Z" fill="white"/>
<path d="M346.7 360.399C347.7 356.299 351.5 353.999 355.9 354.999C360.2 355.999 362.7 359.799 361.7 363.899C360.7 367.999 356.9 370.299 352.5 369.299C348.2 368.299 345.8 364.499 346.7 360.399ZM359.1 363.299C359.8 360.499 358.2 357.899 355.4 357.299C352.6 356.599 350 358.199 349.4 360.999C348.7 363.799 350.3 366.399 353.1 366.999C355.9 367.699 358.4 366.099 359.1 363.299Z" fill="white"/>
<path d="M371.9 373.6L370 368.9C369.8 368.9 369.6 368.8 369.5 368.8L366.4 368.1L365.5 372.1L362.9 371.5L366.2 357.6L371.9 358.9C375.6 359.8 377.4 362.2 376.7 365.2C376.2 367.3 374.8 368.6 372.7 368.9L374.8 374.2L371.9 373.6ZM371.1 361.1L368.1 360.4L366.8 365.9L369.8 366.6C372.1 367.1 373.5 366.4 373.9 364.6C374.3 362.9 373.4 361.6 371.1 361.1Z" fill="white"/>
<path d="M327.2 132.899C327.2 132.899 327.3 132.999 327.6 133.099C327.9 133.199 328.2 133.399 328.7 133.699C329.6 134.299 331 135.099 332.5 136.499C335.6 139.099 339.8 143.699 342.3 150.699C343.6 154.199 344.4 158.199 344.4 162.499C344.4 166.799 343.7 171.499 342 176.099C340.3 180.699 337.7 185.199 334 189.099C332.2 190.999 330.1 192.799 327.7 194.199C325.3 195.599 322.7 196.699 320 197.399C314.5 198.799 308.9 198.699 303.7 198.299C298.4 197.899 293.4 197.199 288.5 196.999C283.7 196.799 279 196.999 274.9 198.099C270.7 199.199 267.1 200.999 264.3 203.399C261.5 205.799 259.8 208.699 258.9 211.499C258 214.299 257.9 216.799 258.2 218.799C258.5 220.799 259.1 222.299 259.7 223.199C260.2 224.099 260.6 224.599 260.6 224.599C260.6 224.599 260.2 224.199 259.7 223.199C259.1 222.299 258.5 220.799 258.1 218.699C257.8 216.699 257.8 214.099 258.7 211.299C259.5 208.499 261.3 205.499 264.1 203.099C266.9 200.599 270.6 198.799 274.8 197.699C279 196.599 283.7 196.299 288.6 196.499C293.5 196.699 298.5 197.399 303.8 197.799C309 198.199 314.6 198.199 320 196.899C322.7 196.199 325.3 195.199 327.6 193.799C329.9 192.399 332 190.699 333.8 188.799C337.4 184.999 340 180.499 341.7 175.999C343.4 171.499 344.1 166.899 344.1 162.599C344.1 158.299 343.3 154.299 342.1 150.899C339.6 143.999 335.5 139.399 332.5 136.699C331 135.299 329.6 134.499 328.7 133.899C328.3 133.599 327.9 133.399 327.7 133.299C327.3 132.999 327.2 132.899 327.2 132.899Z" fill="#2E2E2E"/>
<path d="M258 6.69961C260.6 14.1996 263.2 21.8996 263.6 29.8996C264 37.8996 261.8 46.2996 256 51.7996C249.3 58.1996 239.4 59.3996 230.2 60.2996C236.8 60.4996 244.1 62.0996 248 67.3996C252.5 73.4996 251.1 82.1996 248 89.0996C244.9 95.9996 240.3 102.5 239.1 109.9C249.6 103.3 263.7 102.9 274.5 109C285.3 115.1 292.4 127.3 292.2 139.7C297.9 129 307.7 120.2 319.3 116.9C331 113.6 344.5 116.3 353.2 124.7C346.4 114.9 343.8 102.3 346 90.5996C348.2 78.8996 355.4 68.1996 365.4 61.6996C360.1 66.0996 351.8 65.5996 346.1 61.5996C340.4 57.5996 337.2 50.8996 336 44.0996C334.8 37.2996 335.4 30.2996 336 23.3996C330 31.1996 317.6 32.9996 309.7 27.0996C301.6 21.0996 299.5 10.0996 298.1 0.0996094C298.8 9.89961 291.3 19.5996 281.7 21.3996C272.1 23.1996 261.6 16.6996 258.8 7.29961" fill="#F5F5F5"/>
<path d="M322.2 127.3C321.5 132 322.8 136.8 324.3 141.4C324.6 142.3 324.9 143.1 325.5 143.8C326.1 144.4 327.1 144.8 328 144.4C328.8 144.1 329.2 143.2 329.5 142.4C330.1 140.7 330.4 138.8 330.4 137C331.9 138.1 333.5 139.3 335.3 139.3C337.2 139.4 339.2 137.9 338.9 136C338.7 135 337.9 134.2 337.2 133.5C333.9 130.5 330.6 127.4 327.3 124.4C327.3 124.3 321.8 127.5 322.2 127.3Z" fill="#B09232"/>
<path d="M269.4 32.0996C269.4 32.0996 243.1 51.4996 251.1 82.5996L253.8 82.8996L263.1 73.2996L275.9 90.9996L274.1 72.8996L279.6 76.8996L289 57.2996C289 57.2996 275 47.2996 277 37.4996C277 37.4996 268.8 36.9996 269.4 32.0996Z" fill="#B09232"/>
<path d="M259.2 97.6992C259.2 97.6992 260.4 109.399 270.6 118.999L286.2 109.599C286.2 109.499 265.8 105.799 259.2 97.6992Z" fill="#B09232"/>
<path d="M291.9 118.4C291.9 118.4 299.1 130 317.4 129.4C330.4 129 338.8 112.4 335.5 96.5996L324.9 104.6L321 102V110.4C321 110.4 316.7 116.6 311.2 113.1C311.3 113.1 306.5 123.3 291.9 118.4Z" fill="#B09232"/>
<path d="M298.6 28.6994C298 28.9994 311.1 44.3994 311.2 53.6994C311.2 53.6994 315.5 45.1994 324.4 44.8994C324.4 44.8994 324.7 37.5994 331.8 39.0994C331.9 39.0994 316.6 20.9994 298.6 28.6994Z" fill="#B09232"/>
<path d="M341.3 59C341.3 59 347.5 69.9 347.3 81C347.3 81 338.4 71.8 331.1 78.3L329.3 73.9C329.3 73.9 333.6 73 333.5 67.9C333.5 62.8 328.4 59.7 328.4 59.7C328.4 59.7 338.3 67.9 341.3 59Z" fill="#B09232"/>
<path d="M287.8 85.7995C287.8 85.8995 276.4 88.7995 262.3 92.1995C248.2 95.5995 236.7 98.2995 236.6 98.0995C236.5 97.8995 248 95.0995 262.1 91.6995C276.3 88.2995 287.8 85.5995 287.8 85.7995Z" fill="#2E2E2E"/>
<path d="M290.8 67.6993C290.8 67.7993 284.6 65.6993 277 62.9993C269.5 60.2993 263.4 57.8993 263.4 57.7993C263.4 57.6993 269.6 59.7993 277.2 62.4993C284.8 65.1993 290.9 67.5993 290.8 67.6993Z" fill="#2E2E2E"/>
<path d="M281.8 0.199219C281.9 0.199219 286.7 13.6992 292.5 30.3992C298.3 47.0992 302.9 60.6992 302.7 60.6992C302.6 60.6992 297.8 47.1992 292 30.4992C286.2 13.7992 281.7 0.199219 281.8 0.199219Z" fill="#2E2E2E"/>
<path d="M319.9 39C320 39 320 40.1 319.8 42C319.7 43.8 319.4 46.3 318.9 49.1C318.4 51.9 317.9 54.3 317.4 56.1C316.9 57.9 316.6 59 316.5 58.9C316.4 58.9 316.7 57.8 317 56C317.4 54.2 317.9 51.7 318.3 49C318.8 46.3 319.1 43.8 319.3 41.9C319.7 40.1 319.8 39 319.9 39Z" fill="#2E2E2E"/>
<path d="M358 40.8999C358.1 40.9999 349.3 46.2999 338.5 52.5999C327.6 58.9999 318.7 63.9999 318.7 63.8999C318.6 63.7999 327.4 58.4999 338.2 52.1999C349.1 45.7999 357.9 40.7999 358 40.8999Z" fill="#2E2E2E"/>
<path d="M358.1 89.4996C358.1 89.4996 357.6 89.4996 356.6 89.3996C355.7 89.2996 354.3 89.0996 352.7 88.8996C349.4 88.4996 344.8 87.7996 339.8 86.8996C334.8 85.9996 330.2 85.0996 327 84.3996C325.4 84.0996 324 83.7996 323.1 83.4996C322.2 83.2996 321.7 83.0996 321.7 83.0996C321.7 83.0996 322.2 83.0996 323.1 83.2996C324.1 83.4996 325.4 83.6996 327 83.9996C330.4 84.5996 334.9 85.3996 339.9 86.2996C344.9 87.0996 349.4 87.8996 352.8 88.4996C354.4 88.7996 355.7 88.9996 356.7 89.1996C357.6 89.3996 358.1 89.4996 358.1 89.4996Z" fill="#2E2E2E"/>
<path d="M343.7 132.7C343.6 132.8 336 124.5 326.7 114.2C317.4 103.9 310 95.3997 310.1 95.2997C310.2 95.1997 317.8 103.5 327.1 113.8C336.3 124.2 343.8 132.6 343.7 132.7Z" fill="#2E2E2E"/>
<path d="M283 128.999C283 128.999 283.1 128.599 283.4 127.899C283.7 127.199 284.1 126.099 284.6 124.899C285.6 122.299 287.1 118.799 288.9 114.999C290.6 111.199 292.3 107.699 293.5 105.199C294.1 103.999 294.6 102.999 295 102.299C295.4 101.599 295.6 101.199 295.6 101.299C295.6 101.299 295.5 101.699 295.2 102.399C294.8 103.199 294.4 104.199 293.9 105.399C292.7 107.999 291.2 111.399 289.4 115.199C287.7 118.999 286.2 122.399 285 124.999C284.5 126.199 284 127.199 283.7 127.999C283.3 128.699 283.1 128.999 283 128.999Z" fill="#2E2E2E"/>
<path d="M290.8 78.6994C290.8 78.5994 291.6 78.4994 292.8 78.0994C294 77.5994 295.5 76.6994 296.7 75.0994C297.8 73.4994 298.2 71.7994 298.3 70.4994C298.4 69.1994 298.2 68.3994 298.3 68.3994C298.4 68.3994 298.7 69.1994 298.7 70.4994C298.7 71.7994 298.4 73.6994 297.2 75.3994C296 77.0994 294.3 77.9994 293.1 78.3994C291.6 78.7994 290.8 78.6994 290.8 78.6994Z" fill="#2E2E2E"/>
<path d="M299.1 92.8993C299 92.8993 299.5 92.1993 299.7 90.9993C299.9 89.7993 299.9 87.9993 298.9 86.3993C297.9 84.7993 296.3 83.9993 295.2 83.5993C294 83.2993 293.2 83.3993 293.2 83.2993C293.2 83.2993 294 82.9993 295.3 83.2993C296.6 83.4993 298.3 84.3993 299.4 86.0993C300.5 87.7993 300.5 89.7993 300.1 90.9993C299.7 92.2993 299.1 92.8993 299.1 92.8993Z" fill="#2E2E2E"/>
<path d="M318.6 84.3995C318.6 84.4995 317.7 84.1995 316.3 83.9995C314.9 83.7995 312.8 83.8995 310.8 84.6995C308.8 85.4995 307.2 86.8995 306.3 87.9995C305.4 89.0995 305 89.8995 304.9 89.8995C304.8 89.8995 305.1 88.9995 306 87.7995C306.9 86.5995 308.4 85.0995 310.6 84.2995C312.7 83.4995 314.9 83.3995 316.3 83.6995C317.8 83.8995 318.6 84.2995 318.6 84.3995Z" fill="#2E2E2E"/>
<path d="M318 78.6C318 78.7 317.3 78.7 316.3 78.2C315.3 77.8 314 76.8 313.2 75.3C312.4 73.8 312.5 72.1 312.7 71.1C313 70 313.4 69.5 313.4 69.5C313.5 69.5 313.2 70.1 313 71.2C312.8 72.2 312.9 73.7 313.6 75.1C314.3 76.5 315.5 77.4 316.4 77.9C317.4 78.3 318.1 78.5 318 78.6Z" fill="#2E2E2E"/>
<path d="M312.1 65.9992C312.1 66.0992 311.7 66.4992 310.8 67.0992C310 67.6992 308.7 68.4992 307 68.5992C305.3 68.6992 303.9 67.7992 303.3 66.8992C302.7 65.9992 302.9 65.1992 302.9 65.1992C303 65.1992 303 65.8992 303.6 66.5992C304.2 67.2992 305.4 68.0992 306.9 67.9992C308.4 67.8992 309.6 67.1992 310.5 66.6992C311.5 66.1992 312.1 65.8992 312.1 65.9992Z" fill="#2E2E2E"/>
<g opacity="0.3">
<path d="M322.1 128.5C324.2 127.4 326.1 126.4 327.9 124.8L329.8 126.5C327.3 128.3 324.4 130 322.2 132.3C322.1 132.3 321.9 129.7 322.1 128.5Z" fill="black"/>
</g>
<path d="M328.4 124.199C328.5 124.299 327.4 125.899 325.5 127.099C323.5 128.399 321.6 128.699 321.6 128.599C321.6 128.399 323.3 127.899 325.2 126.699C327 125.499 328.3 124.099 328.4 124.199Z" fill="#2E2E2E"/>
<path d="M324.4 124.499C324.4 124.499 324 124.699 323.3 124.999C322.9 125.199 322.5 125.399 322 125.499C321.5 125.699 320.9 125.899 320.2 126.099C318.9 126.499 317.2 126.799 315.4 126.999C313.6 127.199 311.6 127.199 309.4 126.899C307.3 126.599 305.3 126.199 303.6 125.599C301.9 124.999 300.4 124.299 299.1 123.599C298.5 123.299 298 122.899 297.5 122.599C297 122.299 296.7 121.999 296.3 121.799C295.7 121.299 295.4 121.099 295.4 120.999C295.5 120.899 296.8 121.999 299.2 123.199C300.4 123.799 301.9 124.499 303.6 124.999C305.3 125.499 307.3 125.999 309.3 126.199C311.4 126.399 313.4 126.399 315.2 126.299C317 126.099 318.6 125.899 319.9 125.499C322.8 125.099 324.3 124.399 324.4 124.499Z" fill="#FAFAFA"/>
<path d="M325 140.899C324.9 140.999 324 139.299 323.7 136.999C323.3 134.699 323.6 132.899 323.7 132.899C323.9 132.899 323.8 134.699 324.2 136.899C324.5 139.199 325.1 140.899 325 140.899Z" fill="#FAFAFA"/>
<path d="M269.2 114.4C269.2 114.4 268.5 113.9 267.5 113C266.5 112 265.3 110.6 264.1 108.9C262.9 107.2 262 105.5 261.4 104.2C260.8 102.9 260.6 102.1 260.6 102.1C260.7 102 262.1 105.2 264.4 108.5C266.8 111.9 269.3 114.2 269.2 114.4Z" fill="#FAFAFA"/>
<path d="M259.8 47.4996C259.9 47.5996 258.9 49.0996 257.5 51.5996C256.2 54.1996 254.6 57.8996 253.5 62.1996C252.4 66.4996 252.1 70.4996 252.1 73.3996C252.1 76.2996 252.3 78.0996 252.2 78.0996C252.2 78.0996 252.1 77.6996 252 76.7996C251.9 75.9996 251.8 74.7996 251.8 73.2996C251.7 70.3996 252 66.2996 253.1 61.9996C254.2 57.6996 255.8 53.8996 257.3 51.3996C258 50.0996 258.6 49.0996 259.1 48.4996C259.5 47.7996 259.8 47.3996 259.8 47.4996Z" fill="#FAFAFA"/>
<path d="M267.2 38.7999C267.3 38.8999 266.7 39.5999 265.8 40.2999C264.9 40.9999 264.2 41.4999 264.1 41.3999C264 41.2999 264.6 40.5999 265.5 39.8999C266.3 39.1999 267.1 38.6999 267.2 38.7999Z" fill="#FAFAFA"/>
<path d="M287.6 284.299C287.6 284.299 287.9 284.499 288.2 284.999C288.5 285.499 288.8 286.299 288.7 287.399C288.6 288.499 288 289.799 287 290.899C285.9 291.999 284.5 293.099 282.7 293.899C280.9 294.699 278.8 295.099 276.5 294.899C274.2 294.599 271.8 293.699 269.9 291.899C268 290.199 266.7 287.599 266.3 284.799C265.9 281.999 266.4 278.999 267.6 276.299C268.8 273.599 270.5 271.199 272.3 269.099C274.1 266.999 276 265.099 277.5 263.099C279 261.099 280.2 258.999 280.6 256.799C281.1 254.599 281 252.499 280.6 250.699C279.8 246.999 277.6 244.499 276 243.099C274.4 241.699 273.3 241.199 273.3 241.199C273.3 241.199 274.5 241.599 276.1 242.999C277.7 244.399 280 246.799 280.9 250.699C281.3 252.599 281.4 254.799 281 256.999C280.5 259.299 279.4 261.499 277.8 263.499C276.3 265.599 274.4 267.399 272.6 269.499C270.8 271.599 269.2 273.899 268 276.599C266.9 279.299 266.4 282.099 266.8 284.799C267.1 287.499 268.4 289.999 270.2 291.599C272 293.299 274.3 294.199 276.5 294.499C278.7 294.799 280.8 294.299 282.5 293.599C286 292.099 288.3 289.599 288.4 287.399C288.5 286.299 288.2 285.499 288 284.999C287.8 284.499 287.6 284.299 287.6 284.299Z" fill="#2E2E2E"/>
<path d="M85.1 417.5C88 403.8 104.8 304.3 104.8 304.3C104.8 304.3 92.7 306.2 90.2 310.6C87.5 315.4 74.5 388.7 73 413.6C71.8 413.5 70.6 413.5 69.4 413.6C66.4 413.9 63.3 414.9 61.2 417.1C58.7 419.7 57.8 423.8 59 427.2C59.7 429 60.9 430.6 62.5 431.7C62.3 433.8 63 436.4 64.7 437.5C66.6 438.8 69.3 438.7 71.2 437.3C71.6 438.6 72.8 439.6 74.1 439.8C75.4 440 76.9 439.3 77.6 438.2C78.4 440.1 81 440.2 82.9 439.5C86.4 438.2 89.1 434.9 89.9 431.2C90.7 427.5 89.7 423.6 87.6 420.5C86.9 419.3 86 418.3 85.1 417.5Z" fill="#B09232"/>
<g opacity="0.3">
<path d="M87.5 403.199C80.3 390.599 76.7 377.199 82.1 357.699C86 343.699 93.7 329.499 100.8 316.899" fill="black"/>
</g>
<path d="M83.5999 429.999C83.5999 429.999 83.9999 429.799 84.4999 429.199C84.9999 428.699 85.4999 427.599 85.1999 426.299C84.8999 424.999 83.6999 423.699 81.8999 423.499C80.1999 423.199 78.1999 424.099 76.9999 425.699C75.6999 427.299 75.1999 429.299 75.0999 430.999C74.9999 432.799 75.3999 434.399 75.9999 435.599C77.0999 438.099 78.5999 439.099 78.4999 439.199C78.4999 439.199 78.3999 439.199 78.1999 438.999C77.9999 438.899 77.7999 438.699 77.4999 438.399C76.8999 437.899 76.1999 436.999 75.5999 435.699C74.9999 434.399 74.5999 432.799 74.5999 430.899C74.6999 429.099 75.1999 426.999 76.4999 425.299C77.7999 423.599 79.9999 422.699 81.8999 422.999C83.7999 423.299 85.1999 424.799 85.3999 426.199C85.6999 427.699 84.9999 428.799 84.4999 429.299C84.1999 429.599 83.9999 429.699 83.7999 429.799C83.6999 429.899 83.5999 429.999 83.5999 429.999Z" fill="#2E2E2E"/>
<path d="M61.4999 430.8C61.4999 430.8 61.7999 431 62.4999 431.3C63.0999 431.6 64.0999 432 65.3999 432.1C66.5999 432.2 68.1999 432 69.6999 431.3C70.3999 430.9 71.0999 430.4 71.6999 429.7C72.1999 429 72.4999 428.1 72.3999 427.2C72.0999 425.5 71.0999 424.1 69.9999 423C68.8999 421.9 67.5999 421.2 66.4999 420.8L65.8999 420.6L66.4999 420.4C69.3999 419.7 70.9999 418.6 71.0999 418.7C71.0999 418.7 70.6999 419 69.9999 419.4C69.2999 419.8 68.0999 420.3 66.6999 420.8V420.4C67.8999 420.8 69.1999 421.5 70.3999 422.6C70.9999 423.2 71.4999 423.8 71.9999 424.5C72.4999 425.2 72.8999 426.1 72.9999 427C73.1999 428 72.7999 429.1 72.1999 429.9C71.5999 430.7 70.7999 431.2 69.9999 431.6C68.3999 432.4 66.7999 432.5 65.4999 432.4C64.1999 432.2 63.1999 431.8 62.5999 431.4C62.2999 431.2 62.0999 431 61.8999 430.9C61.4999 430.9 61.3999 430.8 61.4999 430.8Z" fill="#2E2E2E"/>
<path d="M70.6 431C70.8 431.1 70.2 432.5 70.4 434.3C70.6 436.1 71.5 437.4 71.4 437.4C71.3 437.5 70.2 436.3 69.9 434.3C69.6 432.4 70.5 430.9 70.6 431Z" fill="#2E2E2E"/>
<path d="M77.8999 424C77.7999 424 77.8999 423.4 77.3999 422.8C77.1999 422.5 76.7999 422.1 76.3999 421.9C75.8999 421.7 75.3999 421.6 74.7999 421.8C73.5999 422 72.7999 422.9 72.2999 423.5C71.7999 424.1 71.4998 424.6 71.4998 424.6C71.3998 424.6 71.5998 424.1 71.9998 423.3C72.3998 422.6 73.2998 421.6 74.6998 421.3C75.3998 421.2 76.0998 421.2 76.5998 421.5C77.1998 421.8 77.4998 422.2 77.6998 422.6C78.1998 423.4 77.9999 424 77.8999 424Z" fill="#2E2E2E"/>
<g opacity="0.3">
<path d="M66.6999 420.5C68.2999 420.1 70.0999 420.6 71.2999 421.7C72.3999 420.5 73.6999 419.5 75.2999 419.2C76.8999 419 78.6999 419.9 78.9999 421.4C80.0999 420.9 81.4999 420.9 82.5999 421.6C83.6999 422.3 84.3999 423.4 84.5999 424.6C82.8999 422.8 79.7999 422.4 77.6999 423.8C77.6999 422.8 76.9999 421.9 75.9999 421.6C75.0999 421.3 73.9999 421.6 73.1999 422.1C72.3999 422.7 71.7999 423.5 71.2999 424.4C70.1999 422.5 68.4999 421.1 66.3999 420.3" fill="black"/>
</g>
<path d="M63.3 430.3C63.3 430.3 62.5 429.9 61.5 428.9C60.5 427.8 59.5 426 59.4 423.8C59.2 421.6 60 419.6 60.8 418.4C61.6 417.2 62.3 416.7 62.4 416.7C62.5 416.8 61.8 417.4 61.1 418.6C60.4 419.8 59.8 421.6 59.9 423.7C60.1 425.8 61 427.5 61.8 428.6C62.6 429.7 63.3 430.2 63.3 430.3Z" fill="white"/>
<path d="M280.1 234.9C279.4 233 277.6 231.1 275.7 231.6C276.1 230.3 275.7 228.8 274.7 227.9C273.7 227 272.2 226.7 270.9 227.2C270.8 224.9 269.1 222.8 267 222.1C265.1 221.5 262.6 222.6 261.1 224.1C259.2 223.6 257.2 223.6 255.4 224.2C252 225.4 249.4 228.7 249 232.3C248.7 235.3 249.8 238.3 251.5 240.8C253 242.9 254.8 244.7 256.7 246.5C246.4 294.6 193.6 303 193.6 303L198.5 322.4C249.1 309.9 263 269.6 266.8 250.6C267.2 250.6 267.7 250.6 268.1 250.6C271.9 250.3 275.5 248.6 277.9 245.6C280.5 242.6 281.4 238.5 280.1 234.9Z" fill="#B09232"/>
<path d="M273.2 241.401C273.2 241.401 273.3 241.501 273.3 241.701C273.3 241.901 273.4 242.201 273.4 242.601C273.3 243.401 272.9 244.601 271.6 245.301C270.3 246.001 268.3 245.901 266.9 244.601C265.5 243.301 264.8 241.101 265.3 238.901C265.8 236.801 267.1 235.001 268.5 233.801C269.9 232.601 271.5 231.901 272.8 231.601C274.2 231.301 275.3 231.301 276.1 231.401C276.5 231.401 276.8 231.501 277 231.601C277.2 231.701 277.3 231.701 277.3 231.701C277.3 231.801 275.6 231.301 273 232.001C271.7 232.401 270.2 233.101 268.9 234.201C267.6 235.401 266.4 237.001 265.9 239.001C265.4 241.001 266 243.001 267.3 244.201C268.6 245.401 270.4 245.501 271.5 244.901C272.7 244.301 273.2 243.201 273.3 242.501C273.3 241.801 273.2 241.401 273.2 241.401Z" fill="#2E2E2E"/>
<path d="M259.9 223.601C259.9 223.601 260 223.601 260.2 223.601C260.4 223.601 260.7 223.701 261 223.801C261.7 224.001 262.7 224.501 263.6 225.401C264.5 226.301 265.5 227.701 265.9 229.401C266.1 230.301 266.1 231.201 265.9 232.201C265.7 233.201 265.1 234.101 264.1 234.601C263.3 235.101 262.4 235.301 261.5 235.401C260.6 235.501 259.8 235.501 259 235.401C257.4 235.201 256 234.601 254.9 233.901L255.2 233.701C255.8 235.101 256.1 236.301 256.3 237.201C256.4 238.001 256.5 238.501 256.4 238.501C256.3 238.501 256.1 236.601 254.8 233.901L254.5 233.301L255.1 233.601C256.1 234.201 257.5 234.801 259 234.901C260.5 235.101 262.3 235.001 263.8 234.101C264.6 233.601 265.1 232.901 265.3 232.001C265.5 231.101 265.5 230.301 265.3 229.501C265 227.901 264.1 226.601 263.2 225.701C262.3 224.801 261.4 224.301 260.8 224.001C260.3 223.801 259.9 223.701 259.9 223.601Z" fill="#2E2E2E"/>
<path d="M265.8 230.6C265.7 230.6 266.2 229 267.9 227.9C269.6 226.9 271.2 227 271.2 227.1C271.2 227.3 269.7 227.4 268.1 228.3C266.7 229.3 266 230.7 265.8 230.6Z" fill="#2E2E2E"/>
<path d="M265 240.8C265.1 240.8 264.7 241.4 263.8 241.6C263.4 241.7 262.8 241.7 262.2 241.4C261.6 241.1 261.1 240.6 260.8 240C260.1 238.7 260.4 237.4 260.6 236.6C260.9 235.8 261.2 235.3 261.3 235.4C261.4 235.4 261.2 235.9 261 236.7C260.8 237.5 260.7 238.7 261.3 239.7C261.6 240.2 262 240.6 262.4 240.9C262.8 241.1 263.3 241.2 263.7 241.2C264.6 241.1 265 240.7 265 240.8Z" fill="#2E2E2E"/>
<g opacity="0.3">
<path d="M255.3 234.3C256 235.8 257.5 236.9 259.2 237.1C259 238.7 259 240.4 259.8 241.8C260.6 243.2 262.5 244 263.9 243.3C264.2 244.5 265.2 245.5 266.3 246C267.5 246.4 268.9 246.3 269.9 245.6C267.4 245.4 265.2 243.3 264.9 240.7C264.2 241.3 263 241.3 262.1 240.8C261.3 240.3 260.8 239.3 260.7 238.3C260.6 237.3 260.9 236.3 261.3 235.4C259.2 235.8 256.9 235.3 255.1 234.2" fill="black"/>
</g>
<path d="M126.2 421.4C129.4 434.9 132.5 448.4 135.7 461.8C130.8 461.1 125.7 462 121.4 464.5C119.9 465.3 118.3 467 119.1 468.5C119.7 469.7 121.4 469.8 122.7 469.7C133.2 469.2 143.8 470.1 154.3 469.7L153.7 428.7" fill="#B09232"/>
<path d="M183.2 421.4C180 434.9 176.9 448.4 173.7 461.8C178.6 461.1 183.7 462 188 464.5C189.5 465.3 191.1 467 190.3 468.5C189.7 469.7 188 469.8 186.7 469.7C176.2 469.2 165.6 470.1 155.1 469.7L155.7 428.7" fill="#B09232"/>
<g opacity="0.3">
<path d="M128.4 430.801L129.7 436.101C138.3 436.601 146.6 437.901 153.9 436.301L153.8 431.601C153.8 431.601 144.9 431.101 139.8 429.801L142.1 434.101C137.5 433.501 132.9 432.401 128.4 430.801Z" fill="black"/>
</g>
<g opacity="0.3">
<path d="M155.5 436.3C155.5 436.3 164 438.6 172.2 437.2C179.1 436 180.1 434.8 180.1 434.8L182.2 425.7C182.2 425.7 172.6 431.2 157.7 428.2L165.5 431.4H155.6L155.5 436.3Z" fill="black"/>
</g>
<path d="M221.7 369.501C218.4 362.801 214.2 356.501 209.4 350.801C209.4 350.801 209.4 350.801 209.4 350.701C212 351.201 214.7 351.401 217.4 351.301C212.7 347.801 208.7 343.401 205.7 338.501C201.6 323.401 197.2 308.201 197.1 292.801L105.4 292.101C102.6 311.901 99 327.101 92.7 346.101C86.4 365.101 79.2 387.701 91.8 406.301C94.1 409.601 97 412.401 100.3 414.801C104.2 419.001 108.4 422.901 112.9 426.401C112.1 424.501 111.4 422.501 110.6 420.601C111.1 420.801 111.6 421.101 112.2 421.301C121.1 428.501 132.1 433.201 143.5 434.701C142.9 433.301 142.4 432.001 141.8 430.601C154.9 432.901 168.3 432.201 180.2 426.601C202.5 416.101 214.2 403.701 217 387.401C218.4 379.101 216.8 371.701 214.3 364.301C216.8 366.001 219.2 367.801 221.7 369.501Z" fill="#B09232"/>
<path d="M191.4 374.1C191.4 374.1 191.3 374.1 191 374.1C190.8 374.1 190.4 374 189.9 373.9C189 373.7 187.7 373.3 186.1 372.8C182.9 371.6 178.7 369.4 174.8 365.5L175.2 365.2C175.6 366.3 176.1 367.5 176.6 368.7C177.4 370.9 178.3 373 179 374.9L179.6 376.4L178.6 375.2C175.7 371.7 173.3 368.6 171.4 366.3C170.6 365.2 169.9 364.4 169.4 363.7C168.9 363.1 168.7 362.7 168.7 362.7C168.7 362.7 169 363 169.5 363.6C170.1 364.2 170.8 365.1 171.6 366.1C173.5 368.3 176 371.4 178.9 374.9L178.5 375.1C177.7 373.2 176.9 371.1 176.1 368.9C175.6 367.7 175.2 366.5 174.7 365.4L174.3 364.3L175.2 365.2C179 369 183.1 371.3 186.2 372.5C187.8 373.1 189 373.5 189.9 373.8C190.9 373.9 191.4 374 191.4 374.1Z" fill="#2E2E2E"/>
<path d="M112.2 355.901C112.1 355.901 111.7 355.001 111.2 353.501C110.7 352.001 110.2 349.801 110 347.401C109.8 345.001 110 342.701 110.2 341.101C110.5 339.501 110.8 338.601 110.8 338.601C110.9 338.601 110.7 339.601 110.5 341.201C110.3 342.801 110.2 345.001 110.4 347.401C110.6 349.801 111.1 351.901 111.5 353.501C111.9 354.901 112.2 355.901 112.2 355.901Z" fill="#2E2E2E"/>
<path d="M115.2 348.101C115.1 348.101 114.9 347.401 114.6 346.301C114.3 345.201 114.1 343.501 114 341.701C114 339.901 114.2 338.301 114.4 337.101C114.7 335.901 114.9 335.301 115 335.301C115.2 335.301 114.4 338.201 114.5 341.701C114.6 345.201 115.4 348.001 115.2 348.101Z" fill="#2E2E2E"/>
<path d="M147.8 406.801C147.8 406.801 147.6 406.801 147.2 406.701C146.8 406.601 146.3 406.501 145.6 406.301C144.3 405.901 142.3 405.301 140 404.301C135.4 402.401 129.2 398.801 123.7 393.401L124.1 393.101C124.3 393.401 124.5 393.701 124.7 394.001C126.8 397.001 128.2 400.201 129.2 403.201L129.4 403.801L128.9 403.501C124.1 400.701 121 397.001 119.3 394.201C118.4 392.801 117.9 391.601 117.5 390.801C117.3 390.401 117.2 390.101 117.1 389.801C117 389.601 117 389.501 117 389.501C117 389.501 117.2 389.901 117.6 390.701C118 391.501 118.6 392.701 119.5 394.001C121.3 396.701 124.3 400.401 129.1 403.101L128.7 403.401C127.7 400.401 126.3 397.301 124.3 394.401C124.1 394.101 123.9 393.801 123.7 393.501L124.1 393.201C129.6 398.601 135.6 402.201 140.2 404.201C142.5 405.201 144.4 405.901 145.7 406.301C146.4 406.501 146.9 406.701 147.2 406.801C147.7 406.701 147.8 406.801 147.8 406.801Z" fill="#2E2E2E"/>
<path d="M100.9 313.7C100.9 313.7 100.9 313.8 100.9 313.9C100.9 314.1 100.9 314.3 100.8 314.6C100.8 315.2 100.6 316.1 100.5 317.2C100.2 319.5 99.6 322.7 98.6 326.7C97.6 330.7 96.3 335.4 94.6 340.6C93 345.8 91.1001 351.4 89.4001 357.4C87.7001 363.4 86.4 369.2 85.7 374.6C85 380.1 85 385 85.5 389C86 393.1 86.9 396.3 87.7 398.4C88.1 399.5 88.4 400.3 88.7 400.8C88.8 401.1 88.9 401.3 89 401.4C89.1 401.5 89.1 401.6 89.1 401.6C89.1 401.6 89 401.5 89 401.4C88.9 401.2 88.8 401 88.7 400.8C88.4 400.3 88 399.5 87.6 398.4C86.7 396.3 85.8 393.1 85.2 389C84.7 384.9 84.6001 380 85.3001 374.6C86.0001 369.2 87.3 363.4 89 357.3C90.7 351.3 92.6 345.6 94.2 340.4C95.9 335.2 97.3001 330.6 98.3001 326.6C99.3001 322.6 100 319.4 100.3 317.1C100.5 316 100.6 315.1 100.7 314.5C100.7 314.2 100.8 314 100.8 313.8L100.9 313.7Z" fill="#2E2E2E"/>
<path d="M104.8 411.401C104.8 411.401 104.6 411.201 104.2 410.901C103.8 410.501 103.1 410.001 102.4 409.301C100.9 407.801 98.9 405.501 97 402.301C95.1 399.101 93.3 395.001 92 390.201C90.8 385.401 90.1 379.901 90.3 374.201C90.5 368.501 91.3 363.101 92.4 358.301C93.5 353.501 94.7 349.201 95.8 345.601C96.9 342.001 97.9 339.201 98.6 337.201C98.9 336.301 99.2 335.501 99.4 334.901C99.6 334.401 99.7 334.101 99.7 334.101C99.7 334.101 99.6 334.401 99.5 334.901C99.3 335.501 99.1 336.201 98.8 337.201C98.2 339.201 97.3 342.101 96.2 345.601C95.1 349.201 93.9 353.501 92.9 358.301C91.9 363.101 91.1 368.501 90.9 374.201C90.8 379.901 91.4 385.301 92.6 390.001C93.8 394.801 95.5 398.901 97.4 402.101C99.3 405.301 101.2 407.701 102.6 409.201C103.3 410.001 103.9 410.501 104.3 410.901C104.6 411.201 104.8 411.401 104.8 411.401Z" fill="white"/>
<path d="M114.1 414.5C114 414.6 111.8 412.9 109.3 410.8C106.7 408.6 104.7 406.8 104.8 406.7C104.9 406.6 107.1 408.3 109.6 410.4C112.2 412.5 114.2 414.4 114.1 414.5Z" fill="white"/>
<path d="M77.9 133.7C77.2 133.9 58.6999 142.4 62.1999 166.9C65.2999 188.4 77.9 188.9 77.9 188.9L101.6 168.2C101.6 168.2 84.3999 166.4 79.9999 153.8C75.3999 141.2 77.9 133.7 77.9 133.7Z" fill="#455A64"/>
<path d="M88.2 163.4C88.2 163.5 86.5 163.5 83.8 164.1C81.2 164.7 77.6 166.2 74.5 168.9C71.4 171.6 69.5 175 68.5 177.6C67.5 180.2 67.3 181.9 67.2 181.8C67.2 181.8 67.2 181.4 67.3 180.6C67.4 179.8 67.7 178.7 68.1 177.4C69 174.8 70.9 171.3 74.1 168.5C77.3 165.7 81 164.3 83.7 163.7C85.1 163.4 86.2 163.3 86.9 163.3C87.8 163.4 88.2 163.4 88.2 163.4Z" fill="#2E2E2E"/>
<path d="M81.1998 155.7C81.1998 155.8 79.7999 155.5 77.5998 155.7C75.3998 155.9 72.3 156.6 69.5 158.4C66.7 160.2 64.8 162.7 63.7 164.7C62.6 166.7 62.3 168 62.2 168C62.2 168 62.2 167.6 62.4 167C62.6 166.4 62.9 165.5 63.4 164.5C64.4 162.5 66.2998 159.8 69.1998 157.9C72.0998 156 75.3 155.3 77.5 155.2C78.6 155.2 79.4998 155.2 80.1998 155.3C80.8998 155.6 81.1998 155.7 81.1998 155.7Z" fill="#2E2E2E"/>
<path d="M63.0999 151.3C63.0999 151.3 63.0999 151 63.2999 150.6C63.4999 150.2 63.7999 149.6 64.2999 148.9C65.1999 147.6 66.9999 146 69.3999 145.2C71.7999 144.4 74.1999 144.9 75.6999 145.5C76.4999 145.8 76.9999 146.2 77.3999 146.5C77.7999 146.8 77.8999 147 77.8999 147C77.7999 147.1 77.0999 146.4 75.5999 145.9C74.0999 145.4 71.8999 144.9 69.5999 145.7C67.2999 146.5 65.5999 147.9 64.5999 149.1C63.5999 150.4 63.1999 151.4 63.0999 151.3Z" fill="#2E2E2E"/>
<path d="M73.2998 138C73.2998 138 72.7999 138.5 71.9999 139.5C71.0999 140.4 69.8998 141.9 68.6998 143.8C66.1998 147.6 63.4999 153.5 63.1999 160.5C62.8999 167.5 64.9999 173.7 67.0999 177.6C68.1999 179.6 69.1999 181.1 69.9999 182.2C70.7999 183.2 71.1998 183.8 71.1998 183.8C71.1998 183.8 71.0998 183.7 70.7998 183.4C70.5998 183.1 70.1998 182.8 69.7998 182.3C68.9998 181.3 67.8998 179.8 66.6998 177.8C64.3998 173.8 62.1999 167.6 62.5999 160.5C62.8999 153.4 65.6999 147.4 68.3999 143.6C69.6999 141.7 70.9999 140.3 71.8999 139.4C72.2999 138.9 72.6999 138.6 72.9999 138.4C73.0999 138.1 73.2998 138 73.2998 138Z" fill="#FAFAFA"/>
<path d="M218.1 135.8C218.8 136 237.3 144.5 233.8 169C230.7 190.5 218.1 191 218.1 191L194.4 170.3C194.4 170.3 211.6 168.5 216 155.9C220.6 143.3 218.1 135.8 218.1 135.8Z" fill="#455A64"/>
<path d="M207.8 165.6C207.8 165.6 208.2 165.5 209 165.6C209.8 165.6 210.9 165.7 212.2 166C214.9 166.5 218.6 168 221.8 170.8C225 173.6 226.9 177.1 227.8 179.7C228.2 181 228.5 182.1 228.6 182.9C228.7 183.7 228.7 184.1 228.7 184.1C228.6 184.1 228.4 182.4 227.4 179.9C226.4 177.4 224.5 174 221.4 171.3C218.3 168.6 214.7 167.1 212.1 166.5C209.5 165.6 207.8 165.7 207.8 165.6Z" fill="#2E2E2E"/>
<path d="M215.3 157.9C215.3 157.9 215.6 157.8 216.2 157.7C216.8 157.6 217.7 157.5 218.8 157.6C221 157.6 224.1 158.4 226.9 160.3C229.7 162.2 231.6 164.8 232.5 166.8C233 167.8 233.3 168.6 233.4 169.2C233.6 169.8 233.6 170.1 233.6 170.1C233.5 170.1 233.2 168.8 232.2 166.9C231.2 165 229.4 162.5 226.6 160.7C223.9 158.8 220.9 158 218.7 157.9C216.7 157.7 215.3 158 215.3 157.9Z" fill="#2E2E2E"/>
<path d="M232.9 153.399C232.8 153.399 232.4 152.499 231.4 151.299C230.4 150.099 228.7 148.699 226.4 147.899C224.1 147.099 221.9 147.599 220.4 148.099C218.9 148.599 218.1 149.299 218.1 149.199C218.1 149.199 218.2 148.999 218.6 148.699C219 148.399 219.5 148.099 220.3 147.699C221.8 147.099 224.1 146.499 226.6 147.399C229 148.199 230.8 149.699 231.7 151.099C232.2 151.799 232.5 152.299 232.7 152.799C232.8 153.199 232.9 153.399 232.9 153.399Z" fill="#2E2E2E"/>
<path d="M219.8 138.1C219.8 138.1 220 138.5 220.2 139.2C220.3 139.6 220.5 140 220.6 140.6C220.7 141.1 220.9 141.8 220.9 142.5C221 143.2 221.1 144 221.1 144.8C221.2 145.6 221.1 146.5 221.1 147.4C221 149.3 220.7 151.3 220.1 153.3C219.5 155.4 218.6 157.2 217.7 158.9C217.2 159.7 216.8 160.5 216.3 161.1C215.8 161.8 215.3 162.4 214.9 162.9C214.5 163.5 214 163.9 213.6 164.3C213.2 164.7 212.9 165 212.5 165.3C211.9 165.8 211.6 166.1 211.5 166C211.4 165.9 212.8 164.8 214.5 162.7C214.9 162.2 215.4 161.6 215.8 160.9C216.3 160.2 216.7 159.5 217.2 158.7C218.1 157.1 218.9 155.2 219.5 153.2C220.1 151.2 220.4 149.2 220.6 147.4C220.6 146.5 220.7 145.6 220.7 144.8C220.7 144 220.6 143.2 220.6 142.5C220.2 139.7 219.7 138.1 219.8 138.1Z" fill="#FAFAFA"/>
<path d="M133.4 150.001C133.4 150.001 130.3 150.901 131.6 138.401L142.3 150.001C142.3 150.001 137.9 142.801 136.8 136.601C136.8 136.601 150.3 149.101 155 150.001C159.7 150.901 191.9 152.701 210.6 168.701C229.4 184.801 237.9 200.401 239.9 217.201C243.2 244.501 238.3 267.801 225.3 283.401L224.9 278.901C224.9 278.901 211.1 299.001 190.1 304.801C169.1 310.601 107 304.801 107 304.801C107 304.801 72.2 295.401 60.1 268.201C48 241.001 54.7 236.901 54.7 236.901L49.5 241.801C49.5 241.801 48.1 202.601 83.3 174.801C111.1 153.101 133.4 150.001 133.4 150.001Z" fill="#B09232"/>
<path d="M200.9 300.5C200.9 300.5 200.8 300.6 200.7 300.6C200.5 300.7 200.3 300.8 200 301C199.4 301.3 198.5 301.8 197.2 302.4C194.8 303.6 191.2 305.2 186.6 306.9C182 308.6 176.4 310.4 169.9 311.5C166.7 312.1 163.2 312.4 159.5 312.5C155.9 312.5 152.1 312.3 148.2 311.4L148.4 310.9C151.2 312.8 154.1 314.9 157.1 316.9L158.2 317.6L156.9 317.3C156.2 317.1 155.4 317 154.6 316.8C147.4 315.2 140.4 313.8 134 312.4L134.2 312C135.9 313.7 137.5 315.4 139 317.1L139.6 317.7L138.8 317.5C127.4 314.7 118.3 310.8 112.1 307.6C109 306 106.6 304.6 105 303.7C104.2 303.2 103.6 302.8 103.2 302.6C103 302.5 102.9 302.4 102.7 302.3C102.6 302.2 102.5 302.2 102.6 302.2C102.6 302.2 102.7 302.2 102.8 302.3C102.9 302.4 103.1 302.5 103.3 302.6C103.7 302.9 104.4 303.2 105.2 303.7C106.8 304.6 109.2 306 112.3 307.5C118.5 310.6 127.6 314.5 138.9 317.2L138.7 317.6C137.1 316 135.5 314.3 133.8 312.5L133.2 311.9L134 312.1C140.5 313.5 147.4 315 154.6 316.5C155.4 316.7 156.2 316.8 156.9 317L156.7 317.5C153.7 315.4 150.8 313.4 148 311.4L147 310.7L148.2 311C152 311.8 155.8 312.1 159.4 312.1C163 312.1 166.5 311.7 169.7 311.2C176.2 310.1 181.8 308.3 186.4 306.7C191 305 194.6 303.5 197 302.4C198.2 301.8 199.1 301.4 199.8 301.1C200.1 301 200.3 300.9 200.5 300.8C200.9 300.5 200.9 300.5 200.9 300.5Z" fill="#2E2E2E"/>
<g opacity="0.3">
<path d="M200.9 300.5C184 308.9 165 314.8 148.4 311.2C151.3 313.2 154.2 315.2 157.1 317.3C149.4 315.7 141.8 314 134.1 312.4C135.7 314.1 137.3 315.8 138.9 317.5C126.1 314.4 113.8 309.3 102.7 302.4C102.7 302.4 121 321.5 142.1 322.5C177 324.1 200.9 300.5 200.9 300.5Z" fill="black"/>
</g>
<path d="M84.3 273.6C84.3 273.6 84.0998 273.5 83.6998 273.2C83.2998 272.9 82.7 272.6 82 272.1C80.5 271.1 78.5 269.5 76.3 267.2C74 265 71.6 262 69.5 258.3C67.4 254.7 65.5 250.3 64.5 245.6L65 245.5C65 245.6 65 245.7 65 245.9C65.2 251.3 65.3 256.3 65.4 260.8V262L64.9 260.9C62.4 255.3 61.4 250.2 61 246.6C60.8 244.8 60.8 243.4 60.7 242.4C60.7 241.9 60.7 241.5 60.7 241.3C60.7 241.6 60.6999 242 60.7999 242.4C60.8999 243.4 61 244.8 61.2 246.6C61.7 250.2 62.6998 255.2 65.1998 260.7L64.6998 260.8C64.5998 256.3 64.3998 251.2 64.1998 245.9C64.1998 245.8 64.1998 245.6 64.1998 245.5L64.6998 245.4C65.7998 250.1 67.4998 254.4 69.5998 258C71.6999 261.6 74.1 264.6 76.3 266.8C78.5 269.1 80.5 270.7 81.9 271.7C82.6 272.2 83.1999 272.6 83.5998 272.9C84.0998 273.5 84.3 273.6 84.3 273.6Z" fill="#2E2E2E"/>
<path d="M222.6 248.9C222.6 248.9 222.7 248.7 222.9 248.4C223.2 248.1 223.5 247.6 223.9 247.1C224.3 246.5 224.7 245.8 225.2 244.9C225.4 244.5 225.6 244 225.9 243.5C226 243.2 226.1 243 226.3 242.7C226.4 242.4 226.5 242.1 226.6 241.9C228.4 237.3 229.5 230.5 229.4 222.9C229.4 221.8 229.4 220.8 229.3 219.7L229.2 217.7L229.8 219.6C230.5 221.6 231.1 223.5 231.7 225.2H231.2C232.1 222.7 232.5 220.3 232.4 218.1C232.4 215.9 232 214 231.5 212.4C230.5 209.3 229.4 207.8 229.5 207.7C229.5 207.7 229.6 207.8 229.7 208C229.8 208.2 230 208.5 230.2 208.9C230.7 209.7 231.2 210.8 231.8 212.4C232.3 213.9 232.8 215.9 232.8 218.1C232.9 220.3 232.5 222.9 231.6 225.4L231.4 226.1L231.2 225.4C230.6 223.6 229.9 221.7 229.3 219.8L229.8 219.7C229.9 220.7 229.9 221.8 229.9 222.9C230 230.5 228.8 237.4 226.9 242C226.8 242.3 226.7 242.6 226.6 242.9C226.5 243.2 226.3 243.4 226.2 243.7C226 244.2 225.7 244.7 225.5 245.1C225 245.9 224.5 246.7 224.1 247.2C223.7 247.7 223.3 248.1 223.1 248.4C222.7 248.7 222.6 248.9 222.6 248.9Z" fill="#2E2E2E"/>
<path d="M178.3 174.5C178.3 174.5 178.1 174.5 177.6 174.5C177.1 174.5 176.5 174.5 175.6 174.4C173.9 174.3 171.4 174.1 168.3 173.4C162.2 172.2 153.9 169.3 146.3 163.5L146.6 163.1C146.7 163.2 146.7 163.2 146.8 163.3C150.1 166.6 153.2 169.8 156 172.7L156.5 173.3L155.7 173.1C152.6 172.5 149.9 171.3 147.7 169.9C145.5 168.5 143.8 167 142.5 165.6C141.2 164.2 140.4 163 139.8 162.1C139.5 161.7 139.4 161.3 139.2 161.1C139.1 160.9 139 160.7 139 160.7C139 160.7 139.3 161.2 139.9 162C140.5 162.8 141.4 164 142.7 165.4C144 166.7 145.7 168.2 147.9 169.5C150.1 170.8 152.8 171.9 155.8 172.5L155.6 172.9C152.7 170 149.6 166.8 146.3 163.5C146.2 163.4 146.2 163.4 146.1 163.3L146.4 162.9C153.9 168.6 162.1 171.6 168.1 172.9C171.1 173.6 173.6 173.9 175.3 174C176.2 174.1 176.8 174.1 177.3 174.2C178.1 174.5 178.3 174.5 178.3 174.5Z" fill="#2E2E2E"/>
<path d="M112.2 161.601C112.2 161.601 112.1 161.601 112 161.701C111.8 161.801 111.6 161.901 111.3 162.001C110.7 162.201 109.7 162.501 108.6 163.001C106.2 163.901 102.8 165.301 98.8 167.301C90.8 171.401 80.3 178.601 71.5 189.201C62.7 199.801 57.6 211.501 55.1 220.101C53.8 224.401 53.1 228.001 52.7 230.501C52.5 231.701 52.4 232.701 52.2 233.401C52.2 233.701 52.1 233.901 52.1 234.101C52.1 234.301 52 234.401 52 234.401C52 234.401 52 234.301 52 234.101C52 233.901 52 233.701 52.1 233.301C52.2 232.601 52.2 231.701 52.5 230.401C52.8 227.901 53.5 224.301 54.8 219.901C56 215.501 57.9 210.401 60.5 205.101C63.2 199.701 66.7 194.101 71.1 188.801C75.5 183.501 80.4 179.001 85.2 175.301C90 171.701 94.6 168.901 98.7 166.901C102.8 164.901 106.2 163.501 108.6 162.701C109.8 162.301 110.7 162.001 111.4 161.801C111.7 161.701 111.9 161.601 112.1 161.601H112.2Z" fill="#FAFAFA"/>
<path d="M66.9001 271C66.9001 271 66.5001 270.7 65.9001 270C65.6001 269.7 65.2001 269.3 64.8001 268.7C64.4001 268.2 63.9001 267.6 63.4001 266.9C62.4001 265.6 61.4001 263.9 60.3001 262C59.3001 260.1 58.3001 257.9 57.6001 255.5C56.8001 253.1 56.3001 250.7 56.0001 248.6C55.7001 246.4 55.6001 244.5 55.6001 242.8C55.6001 242 55.7001 241.2 55.7001 240.6C55.7001 239.9 55.8001 239.4 55.9001 238.9C56.0001 238 56.1001 237.5 56.1001 237.5C56.1001 237.5 56.1001 238 56.1001 238.9C56.1001 239.4 56.0001 239.9 56.0001 240.6C56.0001 241.2 55.9001 242 56.0001 242.8C56.0001 244.4 56.2001 246.4 56.5001 248.5C56.8001 250.6 57.3001 252.9 58.1001 255.3C58.9001 257.7 59.8001 259.8 60.8001 261.8C61.8001 263.7 62.8001 265.4 63.7001 266.7C64.1001 267.4 64.6001 268 65.0001 268.5C65.4001 269 65.7001 269.5 66.0001 269.8C66.6001 270.6 67.0001 271 66.9001 271Z" fill="#FAFAFA"/>
<path d="M75.2 280.4C75.2 280.5 74.2 280.3 73.2 279.6C72.2 278.9 71.6 278.1 71.8 278C71.9 277.9 72.6 278.5 73.5 279.2C74.4 279.9 75.2 280.3 75.2 280.4Z" fill="#FAFAFA"/>
<path d="M136 151.6C135.9 151.7 133.9 150 132.7 147.1C131.5 144.2 131.8 141.5 132 141.6C132.2 141.6 132.1 144.1 133.2 146.9C134.4 149.7 136.2 151.5 136 151.6Z" fill="#FAFAFA"/>
<g opacity="0.3">
<path d="M127 262.4C127.6 261.4 128.2 260.4 128.8 259.4C128.6 260 128.9 260.6 129.2 261C129.6 261.5 130.1 261.8 130.6 262C131.6 262.6 132.9 263 133.9 262.5C134.9 261.9 135.2 260.5 134.9 259.4C134.7 258.5 134.3 257.6 134 256.7C133.8 255.8 133.7 254.8 134.2 254C134.8 253.1 135.9 252.7 136.9 252.4C140.8 251.3 144.8 250.8 148.8 251.1C152.8 251.5 156.8 252.8 159.9 255.3C159.6 253.9 158.4 252.9 157.1 252.1C151.9 249 145.5 248 139.7 249.7C133.9 251.4 128.9 255.699 126.8 261.299" fill="black"/>
</g>
<path d="M129.7 257.1C130.1 258.8 131 260.3 132.3 261.5C132.8 261.9 133.5 262.3 134 262C134.7 261.7 134.7 260.8 134.5 260C134.1 257.9 133.4 255.9 132.2 254.1" fill="#FAFAFA"/>
<path d="M163.3 257.1C162.9 258.8 162 260.3 160.7 261.5C160.2 261.9 159.5 262.3 159 262C158.3 261.7 158.3 260.8 158.5 260C158.9 257.9 159.6 255.9 160.8 254.1" fill="#FAFAFA"/>
<path d="M168 261.6C167.7 261.8 165.9 259.6 162.3 256.8C160.5 255.4 158.3 253.9 155.6 252.7C152.9 251.5 149.8 250.7 146.4 250.5C143 250.4 139.8 250.9 137.2 252C134.5 253.1 132.4 254.7 130.9 256.4C127.9 259.7 127.4 262.6 126.9 262.5C126.7 262.5 126.7 261.7 126.9 260.4C127.2 259.1 127.9 257.2 129.4 255.2C130.9 253.2 133.1 251.2 136.1 249.8C139.1 248.4 142.7 247.7 146.4 247.9C150.1 248.1 153.6 249.1 156.5 250.5C159.4 251.9 161.7 253.7 163.4 255.3C166.9 258.7 168.2 261.4 168 261.6Z" fill="#2E2E2E"/>
<g opacity="0.3">
<path d="M154.6 274.599C154.8 274.899 153.9 275.699 152.2 276.599C150.5 277.399 148 278.199 145.1 278.299C142.2 278.399 139.6 277.899 137.9 277.099C136.1 276.399 135.2 275.599 135.4 275.299C135.7 274.599 139.9 275.899 145.1 275.599C150.2 275.499 154.3 273.899 154.6 274.599Z" fill="black"/>
</g>
<path d="M108.3 200.9C132.8 209.1 158.3 210 185.1 201.6C185.1 201.6 180.2 236.7 146.8 238.6C113.4 240.5 108.3 200.9 108.3 200.9Z" fill="#FAFAFA"/>
<path d="M133.8 206.9C132.5 215.3 134 223.2 137.7 230.9C138.7 232.9 139.9 234.9 141.6 236.3C143.4 237.7 145.8 238.4 147.9 237.5C149.9 236.7 151.2 234.6 152.1 232.6C156.1 223.9 156.5 216.8 156.9 207.2C149.6 209.2 141.9 208.9 133.8 206.9Z" fill="#2E2E2E"/>
<g opacity="0.3">
<path d="M180.2 220.1C180.3 220.2 179.9 221.3 178.8 223.3C177.7 225.2 175.8 227.8 172.9 230.6C171.5 232 169.7 233.3 167.8 234.7C165.8 236 163.6 237.2 161.2 238.3C156.3 240.4 150.4 241.7 144.3 241.4C138.1 241.1 132.4 239.2 127.7 236.7C125.3 235.5 123.3 234 121.4 232.5C119.6 231 118 229.5 116.7 228C114.1 225 112.4 222.2 111.5 220.2C110.6 218.2 110.3 217 110.4 216.9C110.6 216.8 111.2 217.9 112.4 219.7C113.6 221.5 115.4 224 118.1 226.8C119.4 228.2 121 229.5 122.8 230.9C124.6 232.2 126.6 233.5 128.9 234.7C133.4 237 138.7 238.6 144.5 238.9C150.3 239.1 155.8 238 160.4 236.2C162.7 235.3 164.9 234.2 166.8 233C168.7 231.8 170.4 230.6 171.9 229.4C174.8 226.9 176.9 224.6 178.2 222.9C179.3 221 180 220 180.2 220.1Z" fill="black"/>
</g>
<g opacity="0.3">
<path d="M177.6 195.7C176.6 195.4 175.5 195.9 174.5 196.4C165.4 201 154.9 202.8 144.7 201.5C134.6 200.2 124.1 196.7 116.4 190C114.3 191.1 113.8 194.1 114.7 196.3C115.6 198.5 117.6 200.1 119.6 201.3C126.5 205.7 134.6 208.1 142.8 208.8C151 209.5 159.2 208.5 167.2 206.5C171.1 205.5 175.2 204.2 177.8 201.1C178.5 200.3 179 199.3 179.1 198.3C179.2 197.2 178.6 196.1 177.6 195.7Z" fill="black"/>
</g>
<path d="M176.3 195.5C176.7 196 174.1 198.9 168.6 201.7C165.9 203.1 162.4 204.4 158.3 205.3C154.3 206.2 149.7 206.5 144.9 206.1C140.1 205.6 135.7 204.4 131.9 202.8C128.1 201.2 124.9 199.3 122.5 197.4C117.6 193.6 115.6 190.3 116.1 189.8C116.7 189.2 119.5 191.5 124.5 194.3C129.5 197.1 136.8 200.1 145.3 200.9C153.8 201.7 161.6 200.1 167 198.4C172.6 196.5 175.9 194.8 176.3 195.5Z" fill="#2E2E2E"/>
<path d="M141.2 230.8C141.2 230.8 141 230.6 140.6 230.2C140.3 229.8 139.8 229.1 139.3 228.3C138.3 226.6 137.2 224.2 136.6 221.3C136 218.4 135.9 215.7 136.1 213.8C136.2 212.8 136.3 212.1 136.4 211.5C136.5 211 136.6 210.7 136.6 210.7C136.7 210.7 136.5 211.9 136.4 213.8C136.3 215.7 136.4 218.3 137 221.2C137.6 224 138.7 226.5 139.5 228.1C140.5 229.7 141.2 230.7 141.2 230.8Z" fill="#FAFAFA"/>
<path d="M193.1 199.5C193.1 199.6 192 200.1 189.8 201C188.7 201.4 187.4 201.9 185.8 202.4C184.2 202.9 182.4 203.5 180.4 204C178.4 204.5 176.2 205.2 173.8 205.6C172.6 205.8 171.4 206.1 170.1 206.4C168.8 206.6 167.5 206.8 166.1 207.1C160.6 207.9 154.6 208.5 148.2 208.5C141.8 208.5 135.8 208 130.3 207.2C127.6 206.7 125 206.3 122.6 205.8C121.4 205.5 120.2 205.3 119.1 205C118 204.7 116.9 204.4 115.9 204.1C113.9 203.6 112.1 203 110.5 202.4C109.7 202.1 109 201.9 108.3 201.7C107.6 201.4 107 201.2 106.5 201C104.3 200.1 103.2 199.6 103.2 199.5C103.3 199.2 108.1 201.1 116.1 203C117.1 203.2 118.2 203.5 119.3 203.8C120.4 204 121.6 204.2 122.7 204.5C125.1 205 127.6 205.3 130.3 205.8C135.7 206.5 141.7 206.9 148 207C154.3 207 160.3 206.5 165.7 205.8C167 205.6 168.4 205.4 169.6 205.2C170.9 205 172.1 204.7 173.3 204.5C175.7 204.1 177.9 203.5 179.9 203.1C181.9 202.7 183.7 202.1 185.3 201.7C186.9 201.3 188.2 200.9 189.4 200.5C191.8 199.7 193.1 199.4 193.1 199.5Z" fill="#2E2E2E"/>
<path d="M455.5 469.7C455.5 469.8 353.5 470 227.7 470C102 470 0 469.9 0 469.7C0 469.6 102 469.4 227.8 469.4C353.6 469.5 455.5 469.6 455.5 469.7Z" fill="#2E2E2E"/>
<path d="M177.2 143.2L171.8 118.9L184.7 117.5L188.9 95.7998L190.8 122.7L177.7 124L177.2 143.2Z" fill="#B09232"/>
<path d="M184.5 146.5L192.9 129L201.4 134.4L214.4 123.1L202.7 140.4L194 134.9L184.5 146.5Z" fill="#B09232"/>
<path opacity="0.6" d="M177.2 143.2L171.8 118.9L184.7 117.5L188.9 95.7998L190.8 122.7L177.7 124L177.2 143.2Z" fill="white"/>
<path opacity="0.6" d="M184.5 146.5L192.9 129L201.4 134.4L214.4 123.1L202.7 140.4L194 134.9L184.5 146.5Z" fill="white"/>
</g>
</g>
<defs>
<clipPath id="clip0_81_2">
<rect width="456" height="471" fill="white"/>
</clipPath>
</defs>
</svg>
