<svg width="329" height="329" viewBox="0 0 329 329" fill="none" xmlns="http://www.w3.org/2000/svg">
<path d="M245.794 29.1167L248.851 23.9879C244.991 21.6831 240.987 19.5195 236.948 17.5417L234.323 22.9081C238.211 24.8071 242.068 26.9008 245.794 29.1167Z" fill="#B19235"/>
<path d="M22.4227 246.208C40.8831 278.466 68.8068 302.85 103.194 316.741L105.428 311.208C72.3012 297.825 45.392 274.326 27.6039 243.243C-15.6589 167.645 10.6587 70.9338 86.2682 27.664C128.983 3.21934 179.605 -0.0147039 225.147 18.7891L227.423 13.2678C180.165 -6.24334 127.629 -2.88328 83.3035 22.4835C4.83627 67.3887 -22.4753 167.753 22.4227 246.208Z" fill="#B19235"/>
<path d="M301.865 86.2887C345.128 161.886 318.811 258.598 243.201 301.868C224.719 312.444 204.73 319.086 183.776 321.625L184.494 327.547C206.243 324.909 226.99 318.022 246.166 307.048C324.633 262.143 351.945 161.778 307.047 83.3236C295.259 62.7264 279.576 45.316 260.446 31.5908L256.97 36.44C275.4 49.667 290.506 66.4392 301.87 86.2976L301.865 86.2887Z" fill="#B19235"/>
</svg>
