<svg width="420" height="439" viewBox="0 0 420 439" fill="none" xmlns="http://www.w3.org/2000/svg">
<path d="M33.5976 328.282L26.9385 332.038C29.7624 337.054 32.8358 342.005 36.0669 346.772L42.3976 342.478C39.2848 337.895 36.3295 333.115 33.5976 328.282Z" fill="#B19235"/>
<path d="M419.918 229.081C419.918 181.49 404.393 136.63 375.012 99.3213L369.009 104.049C397.314 139.992 412.274 183.223 412.274 229.081C412.274 340.613 321.516 431.357 209.966 431.357C146.947 431.357 88.6305 402.755 49.9761 352.892L43.9343 357.58C84.0466 409.321 144.57 439 209.966 439C325.732 439 419.918 344.829 419.918 229.081Z" fill="#B19235"/>
<path d="M7.64419 229.081C7.64418 117.549 98.4025 26.805 209.953 26.805C237.219 26.805 263.659 32.1367 288.562 42.6425L291.53 35.6037C265.682 24.7039 238.244 19.1621 209.953 19.1621C94.1864 19.1621 -8.86817e-06 113.333 -3.80868e-06 229.081C-2.48038e-06 259.469 6.35702 288.793 18.8872 316.214L25.8353 313.035C13.7648 286.613 7.64419 258.366 7.64419 229.068L7.64419 229.081Z" fill="#B19235"/>
<path d="M303.916 44.4942C307.225 68.4605 327.728 71.0476 335.07 72.9124C342.412 74.7903 342.005 70.8243 353.957 83.1687C355.245 84.495 356.637 86.7406 357.714 88.0145C359.881 90.6146 361.996 94.9483 363.572 96.3009C364.885 97.4303 370.402 96.9312 368.878 92.3481C367.893 89.3933 364.544 84.8627 363.02 82.7353C360.984 79.8987 359.172 77.8632 358.673 74.1205C357.083 62.1439 359.027 74.5933 369.023 68.6706C379.018 62.7349 386.097 36.1027 386.097 36.1027C381.303 44.2053 376.063 40.6727 361.234 45.2559C346.405 49.839 349.623 67.318 349.623 67.318C349.623 67.318 348.336 68.4736 346.891 68.5393C346.891 68.5393 346.865 68.5393 346.839 68.5393C346.602 68.5393 346.353 68.5393 346.103 68.4605C342.412 68.0403 332.023 69.2091 325.745 56.9304C322.369 50.3118 326.98 42.6556 320.951 37.5078C320.951 37.5078 326.52 35.0258 328.306 48.644C329.488 57.6789 334.873 60.8832 342.793 59.7932C342.399 55.9192 342.925 52.1765 344.383 42.7738C349.676 8.6694 289.415 -6.53775 300.96 4.02058C312.492 14.5789 300.619 20.5147 303.929 44.481L303.916 44.4942Z" fill="#B19235"/>
</svg>
