<svg width="58" height="65" viewBox="0 0 58 65" fill="none" xmlns="http://www.w3.org/2000/svg">
<path d="M54.5979 29.9412C52.399 45.9023 38.7779 47.6253 33.9001 48.8672C29.0223 50.1178 29.2928 47.4766 21.3523 55.6976C20.4971 56.581 19.5722 58.0765 18.8567 58.9249C17.4169 60.6565 16.012 63.5426 14.9649 64.4435C14.0923 65.1956 10.4275 64.8633 11.4397 61.811C12.0941 59.8432 14.3192 56.8258 15.3314 55.409C16.6839 53.5199 17.8881 52.1643 18.2197 49.6718C19.2755 41.6956 17.9841 49.9866 11.3437 46.0423C4.70329 42.0891 3.05176e-05 24.3526 3.05176e-05 24.3526C3.18498 29.7488 6.6666 27.3962 16.5181 30.4485C26.3697 33.5008 24.2318 45.1414 24.2318 45.1414C24.2318 45.1414 25.087 45.9111 26.0468 45.9548C26.0468 45.9548 26.0642 45.9548 26.0817 45.9548C26.2388 45.9548 26.4045 45.9548 26.5703 45.9023C29.0223 45.6224 35.9245 46.4008 40.0955 38.2235C42.338 33.8156 39.2753 28.7168 43.2804 25.2884C43.2804 25.2884 39.5807 23.6355 38.3939 32.7049C37.6086 38.722 34.031 40.856 28.7693 40.1301C29.0311 37.5501 28.682 35.0575 27.7134 28.7955C24.1969 6.0826 64.2313 -4.04507 56.5612 2.98657C48.8999 10.0182 56.7881 13.9713 54.5892 29.9324L54.5979 29.9412Z" fill="#CFE1F3"/>
</svg>
