<svg width="78" height="74" viewBox="0 0 78 74" fill="none" xmlns="http://www.w3.org/2000/svg">
<path d="M19.5589 5.92082L18.8954 4.74731C18.0092 5.24495 17.1346 5.78657 16.2925 6.35596L17.0511 7.4716C17.8607 6.92304 18.7052 6.40225 19.5589 5.92082Z" fill="#B8D8EB"/>
<path d="M37.0834 73.9999C45.4907 73.9999 53.4154 71.264 60.0062 66.0863L59.171 65.0285C52.8215 70.0165 45.1844 72.6528 37.0834 72.6528C17.3806 72.6528 1.35017 56.6589 1.35017 37.001C1.35017 25.8956 6.40289 15.6188 15.2115 8.8069L14.3833 7.74219C5.24294 14.811 0 25.4766 0 37.001C0 57.4019 16.6359 73.9999 37.0834 73.9999Z" fill="#B8D8EB"/>
<path d="M37.0834 1.3471C56.7862 1.3471 72.8166 17.341 72.8166 36.9989C72.8166 41.804 71.8747 46.4633 70.0188 50.8517L71.2623 51.3748C73.1878 46.8197 74.1668 41.9845 74.1668 36.9989C74.1668 16.598 57.5308 0 37.0834 0C31.7151 0 26.5348 1.12027 21.6909 3.32839L22.2523 4.55282C26.9199 2.4257 31.91 1.3471 37.0857 1.3471H37.0834Z" fill="#B8D8EB"/>
<path d="M69.6916 53.5575C65.4578 54.1408 65.0008 57.7539 64.6714 59.0477C64.3396 60.3416 65.0402 60.2699 62.8595 62.3761C62.6252 62.603 62.2285 62.8483 62.0035 63.0381C61.5442 63.42 60.7786 63.7927 60.5397 64.0704C60.3401 64.3019 60.4283 65.274 61.2379 65.0055C61.7599 64.8319 62.5603 64.2417 62.9361 63.9732C63.4372 63.6145 63.7968 63.295 64.458 63.2071C66.5737 62.927 64.3744 63.2696 65.4207 65.031C66.4693 66.7924 71.174 68.04 71.174 68.04C69.7426 67.1951 70.3667 66.2716 69.5571 63.6584C68.7474 61.0453 65.6597 61.6123 65.6597 61.6123C65.6597 61.6123 65.4555 61.3855 65.4439 61.1309C65.4439 61.1309 65.4439 61.1263 65.4439 61.1216C65.4439 61.08 65.4439 61.036 65.4578 60.992C65.5321 60.3416 65.3256 58.5108 67.4947 57.4044C68.6639 56.8095 70.0164 57.622 70.9258 56.5596C70.9258 56.5596 71.3643 57.5409 68.9585 57.8557C67.3624 58.064 66.7964 59.013 66.9889 60.4087C67.6733 60.3393 68.3345 60.4319 69.9955 60.6888C76.0203 61.6216 78.7067 51.0022 76.8415 53.0367C74.9763 55.069 73.9277 52.9766 69.6939 53.5598L69.6916 53.5575Z" fill="#B8D8EB"/>
</svg>
